<svg id="admin" xmlns="http://www.w3.org/2000/svg" width="41.67" height="54.705" viewBox="0 0 41.67 54.705">
  <path id="Path_1175" data-name="Path 1175" d="M159.616,64.808a4.808,4.808,0,1,0-4.808,4.808A4.814,4.814,0,0,0,159.616,64.808Zm-4.808,1.6a1.6,1.6,0,1,1,1.6-1.6A1.6,1.6,0,0,1,154.808,66.411Zm0,0" transform="translate(-133.973 -53.589)"/>
  <path id="Path_1176" data-name="Path 1176" d="M40.067,38.678h-1.6V33.87a1.6,1.6,0,0,0-1.6-1.6H22.438V28.759a14.424,14.424,0,1,0-3.205,0v3.509H4.808a1.6,1.6,0,0,0-1.6,1.6v4.808H1.6a1.6,1.6,0,0,0-1.6,1.6v6.411a1.6,1.6,0,0,0,1.6,1.6h1.6V53.1a1.6,1.6,0,1,0,3.205,0V48.294h1.6a1.6,1.6,0,0,0,1.6-1.6V40.281a1.6,1.6,0,0,0-1.6-1.6h-1.6V35.473H19.232v3.205h-1.6a1.6,1.6,0,0,0-1.6,1.6v6.411a1.6,1.6,0,0,0,1.6,1.6h1.6V53.1a1.6,1.6,0,1,0,3.205,0V48.294h1.6a1.6,1.6,0,0,0,1.6-1.6V40.281a1.6,1.6,0,0,0-1.6-1.6h-1.6V35.473H35.259v3.205h-1.6a1.6,1.6,0,0,0-1.6,1.6v6.411a1.6,1.6,0,0,0,1.6,1.6h1.6V53.1a1.6,1.6,0,1,0,3.205,0V48.294h1.6a1.6,1.6,0,0,0,1.6-1.6V40.281A1.6,1.6,0,0,0,40.067,38.678ZM16.027,24.559V24.04a4.808,4.808,0,0,1,9.616,0v.519a11.156,11.156,0,0,1-4.806,1.084h0a11.156,11.156,0,0,1-4.806-1.084ZM9.616,14.424A11.219,11.219,0,1,1,28.686,22.43a8.014,8.014,0,0,0-15.7,0A11.185,11.185,0,0,1,9.616,14.424ZM6.411,45.089H3.205V41.884H6.411Zm16.027,0H19.232V41.884h3.205Zm16.027,0H35.259V41.884h3.205Zm0,0" transform="translate(0)"/>
</svg>
