<svg xmlns="http://www.w3.org/2000/svg" width="48" height="48" viewBox="0 0 48 48">
    <defs>
        <clipPath id="prefix__clip-path">
            <path id="prefix__Rectangle_178" fill="#4eb9e9" d="M0 0H48V48H0z" data-name="Rectangle 178" transform="translate(654 7601)"/>
        </clipPath>
        <style>
            .prefix__cls-4{fill:#58565d}.prefix__cls-6{fill:#fedb41;stroke:#58565d}.prefix__cls-7{stroke:none}.prefix__cls-8{fill:none}
        </style>
    </defs>
    <g id="prefix__Mask_Group_71" clip-path="url(#prefix__clip-path)" data-name="Mask Group 71" transform="translate(-654 -7601)">
        <g id="prefix__web" transform="translate(651.966 7598.966)">
            <path id="prefix__Path_2089" fill="#00acea" d="M49.22 16.5v25.648a3.279 3.279 0 0 1-3.2 3.355H6.046a3.279 3.279 0 0 1-3.2-3.355V16.5z" data-name="Path 2089"/>
            <path id="prefix__Path_2090" d="M49.22 9.919V16.5H2.847V9.919a3.279 3.279 0 0 1 3.2-3.355h39.975a3.279 3.279 0 0 1 3.198 3.355zM23.635 11.6a2.134 2.134 0 1 0-2.135 2.234 2.186 2.186 0 0 0 2.135-2.234zm-6.928 0a2.135 2.135 0 1 0-2.133 2.236 2.187 2.187 0 0 0 2.132-2.236zm-6.929 0a2.187 2.187 0 0 0-2.134-2.24 2.239 2.239 0 0 0 0 4.474A2.187 2.187 0 0 0 9.777 11.6z" class="prefix__cls-4" data-name="Path 2090"/>
            <path id="prefix__Path_2092" fill="#fedb41" d="M21.5 9.36a2.239 2.239 0 1 1-2.129 2.24A2.186 2.186 0 0 1 21.5 9.36zm-6.929 0a2.239 2.239 0 1 1-2.13 2.24 2.187 2.187 0 0 1 2.133-2.24zm-6.929 0a2.239 2.239 0 0 1 0 4.474 2.239 2.239 0 0 1 0-4.474z" data-name="Path 2092"/>
            <path id="prefix__Path_2093" d="M46.022 5.8H6.046a4.057 4.057 0 0 0-4.012 4.119v32.229a4.057 4.057 0 0 0 4.012 4.123h39.976a4.057 4.057 0 0 0 4.012-4.123V9.919A4.057 4.057 0 0 0 46.022 5.8zM6.046 7.424h39.976a2.429 2.429 0 0 1 2.385 2.5v5.742H3.661V9.919a2.429 2.429 0 0 1 2.385-2.495zm39.976 37.22H6.046a2.429 2.429 0 0 1-2.385-2.5V17.288h44.746v24.86a2.429 2.429 0 0 1-2.385 2.5z" class="prefix__cls-4" data-name="Path 2093"/>
            <g id="prefix__Rectangle_179" class="prefix__cls-6" data-name="Rectangle 179" transform="translate(5.034 19.034)">
                <rect width="10" height="10" class="prefix__cls-7" rx="3"/>
                <rect width="9" height="9" x=".5" y=".5" class="prefix__cls-8" rx="2.5"/>
            </g>
            <g id="prefix__Rectangle_180" class="prefix__cls-6" data-name="Rectangle 180" transform="translate(5.034 31.034)">
                <rect width="42" height="10" class="prefix__cls-7" rx="3"/>
                <rect width="41" height="9" x=".5" y=".5" class="prefix__cls-8" rx="2.5"/>
            </g>
            <g id="prefix__Rectangle_181" class="prefix__cls-6" data-name="Rectangle 181" transform="translate(18.034 20.034)">
                <rect width="27" height="3" class="prefix__cls-7" rx="1.5"/>
                <rect width="26" height="2" x=".5" y=".5" class="prefix__cls-8" rx="1"/>
            </g>
            <g id="prefix__Rectangle_182" class="prefix__cls-6" data-name="Rectangle 182" transform="translate(18.034 25.034)">
                <rect width="27" height="3" class="prefix__cls-7" rx="1.5"/>
                <rect width="26" height="2" x=".5" y=".5" class="prefix__cls-8" rx="1"/>
            </g>
        </g>
    </g>
</svg>
