<svg xmlns="http://www.w3.org/2000/svg" width="26.6" height="26.604" viewBox="0 0 26.6 26.604">
    <path id="prefix__android_1_" fill="#fff" stroke="#ff8252" stroke-width="0.6px" d="M3.292 11.1a1.3 1.3 0 0 0-1.3 1.3v5.2a1.3 1.3 0 0 0 2.6 0v-5.2a1.3 1.3 0 0 0-1.3-1.3zm23.4 0a1.3 1.3 0 0 0-1.3 1.3v5.2a1.3 1.3 0 0 0 2.6 0v-5.2a1.3 1.3 0 0 0-1.3-1.3zm-5.375-7.15a1.3 1.3 0 1 0-2.251-1.3l-.8 1.381a7.706 7.706 0 0 0-6.552 0l-.8-1.381a1.3 1.3 0 1 0-2.251 1.3l.9 1.557A7.773 7.773 0 0 0 7.192 11.1v10.4a1.3 1.3 0 0 0 1.3 1.3h2.6v3.9a1.3 1.3 0 0 0 2.6 0v-3.9h2.6v3.9a1.3 1.3 0 0 0 2.6 0v-3.9h2.6a1.3 1.3 0 0 0 1.3-1.3V11.1a7.773 7.773 0 0 0-2.375-5.593zM20.192 20.2h-10.4v-6.5h10.4zm-10.4-9.1a5.2 5.2 0 0 1 10.4 0z" data-name="android (1)" transform="translate(-1.692 -1.697)"/>
</svg>
