<svg xmlns="http://www.w3.org/2000/svg" width="21.688" height="26.8" viewBox="0 0 21.688 26.8">
    <g id="prefix__layer1" transform="translate(-1.539 -1036.98)">
        <path id="prefix__path4444" d="M17.77 1.518a3.919 3.919 0 0 0-3.527 1.736 6.153 6.153 0 0 0-1.1 3.611 4.007 4.007 0 0 0 3.276-1.386 5.488 5.488 0 0 0 1.351-3.961zm-.8 7.033a8.047 8.047 0 0 0-2.431.468 7.4 7.4 0 0 1-2.036.464 10.113 10.113 0 0 1-1.959-.426 9.975 9.975 0 0 0-2.507-.43 4.847 4.847 0 0 0-3.995 2.018 8.283 8.283 0 0 0-1.606 5.238 14.271 14.271 0 0 0 2.078 7.027c1.41 2.406 2.821 3.607 4.271 3.607a5.426 5.426 0 0 0 1.882-.465 5.447 5.447 0 0 1 2-.468 5.8 5.8 0 0 1 2.116.468 6.488 6.488 0 0 0 1.959.465c1.215 0 2.428-.932 3.642-2.755a13.148 13.148 0 0 0 1.725-3.492 4.627 4.627 0 0 1-2.155-1.746 5.275 5.275 0 0 1-.08-6.013 10 10 0 0 1 1.606-1.669 8.189 8.189 0 0 0-1.488-1.4 5.109 5.109 0 0 0-3.018-.891z" transform="translate(0 1036.362)" style="fill:none;stroke:#fff;stroke-linecap:round;stroke-width:1.8px"/>
    </g>
</svg>
