<svg xmlns="http://www.w3.org/2000/svg" width="410.291" height="645.704" viewBox="0 0 410.291 645.704">
  <g id="bacground" opacity="0.15">
    <path id="Path_2690" data-name="Path 2690" d="M250.327,388.844l.092.053,42.572,24.578v49.266l-.092.052-42.572,24.58-.092-.054-42.572-24.578V413.476l.092-.053Zm42.3,24.846-42.3-24.42-42.3,24.42v48.838l42.3,24.418,42.3-24.418Z" transform="translate(98.657 79.487)" fill="#1e73c9"/>
    <path id="Path_2691" data-name="Path 2691" d="M294.79,388.844l.092.053,42.572,24.578v49.266l-.092.052-42.572,24.58-.092-.054-42.572-24.578V413.476l.092-.053Zm42.3,24.846-42.3-24.42-42.295,24.42v48.838l42.295,24.418,42.3-24.418Z" transform="translate(-30.358 79.487)" fill="#1e73c9"/>
    <path id="Path_2692" data-name="Path 2692" d="M339.253,388.844l.092.053,42.572,24.578v49.266l-.092.052-42.572,24.58-.092-.054-42.572-24.578V413.476l.092-.053Zm42.295,24.846-42.295-24.42-42.3,24.42v48.838l42.3,24.418,42.295-24.418Z" transform="translate(-159.447 79.487)" fill="#1e73c9"/>
    <path id="Path_2693" data-name="Path 2693" d="M383.714,388.844l.092.053,42.572,24.578v49.266l-.092.052-42.572,24.58-.092-.054-42.57-24.578V413.476l.092-.053Zm42.3,24.846-42.3-24.42-42.293,24.42v48.838l42.293,24.418,42.3-24.418Z" transform="translate(-288.328 79.487)" fill="#1e73c9"/>
    <path id="Path_2694" data-name="Path 2694" d="M385.514,395.292l10.429-6.021,42.295,24.418v48.838l-42.295,24.418-10.429-6.021v.426l10.337,5.968.092.054,42.572-24.578.092-.053V413.476L396.036,388.9l-.092-.053-10.429,6.021Z" transform="translate(-385.514 79.487)" fill="#1e73c9"/>
    <path id="Path_2695" data-name="Path 2695" d="M272.559,427.35l.092.054,42.57,24.578v49.266l-.092.052-42.57,24.58-.094-.053L229.9,501.247V451.982l.092-.054ZM314.852,452.2l-42.293-24.42-42.3,24.42v48.838l42.3,24.418,42.293-24.418Z" transform="translate(33.947 -32.423)" fill="#1e73c9"/>
    <path id="Path_2696" data-name="Path 2696" d="M317.024,427.35l.092.054,42.57,24.578v49.266l-.092.052-42.57,24.58-.094-.053-42.572-24.578V451.982l.094-.054Zm42.3,24.846-42.3-24.42-42.3,24.42v48.838l42.3,24.418,42.3-24.418Z" transform="translate(-94.904 -32.423)" fill="#1e73c9"/>
    <path id="Path_2697" data-name="Path 2697" d="M361.484,427.35l.092.054,42.572,24.578v49.266l-.094.052-42.57,24.58-.094-.053-42.57-24.578V451.982l.092-.054ZM403.777,452.2l-42.293-24.42L319.189,452.2v48.838l42.295,24.418,42.293-24.418Z" transform="translate(-223.99 -32.423)" fill="#1e73c9"/>
    <path id="Path_2698" data-name="Path 2698" d="M405.947,427.35l.094.054,42.57,24.578v49.266l-.094.052-42.57,24.58-.092-.053-42.572-24.578V451.982l.094-.054ZM448.242,452.2l-42.295-24.42-42.3,24.42v48.838l42.3,24.418,42.295-24.418Z" transform="translate(-353.039 -32.423)" fill="#1e73c9"/>
    <path id="Path_2699" data-name="Path 2699" d="M407.745,437.461l10.245,5.915v48.838l-10.245,5.915v.426l10.522-6.075.092-.053V443.162l-10.614-6.128Z" transform="translate(-407.745 -23.595)" fill="#1e73c9"/>
    <path id="Path_2700" data-name="Path 2700" d="M339.253,465.856l.092.054,42.572,24.578v49.266l-.092.054-42.572,24.578-.092-.054-42.572-24.578V490.488l.092-.054ZM381.548,490.7l-42.295-24.418-42.3,24.418v48.838l42.3,24.418,42.295-24.418Z" transform="translate(-159.447 -144.423)" fill="#1e73c9"/>
    <path id="Path_2701" data-name="Path 2701" d="M383.714,465.856l.092.054,42.572,24.578v49.266l-.092.054-42.572,24.578-.092-.054-42.57-24.578V490.488l.092-.054Zm42.3,24.846-42.3-24.418L341.421,490.7v48.838l42.293,24.418,42.3-24.418Z" transform="translate(-288.328 -144.423)" fill="#1e73c9"/>
    <path id="Path_2702" data-name="Path 2702" d="M385.514,472.3l10.429-6.021L438.238,490.7v48.838l-42.295,24.418-10.429-6.021v.426l10.337,5.968.092.053,42.572-24.578.092-.053V490.488L396.036,465.91l-.092-.054-10.429,6.021Z" transform="translate(-385.514 -144.423)" fill="#1e73c9"/>
    <path id="Path_2703" data-name="Path 2703" d="M361.484,504.362l.092.054,42.572,24.578V578.26l-.094.054-42.57,24.578-.094-.054L318.82,578.26V528.994l.092-.054Zm42.293,24.846L361.484,504.79l-42.295,24.418v48.838l42.295,24.418,42.293-24.418Z" transform="translate(-223.99 -256.423)" fill="#1e73c9"/>
    <path id="Path_2704" data-name="Path 2704" d="M405.947,504.362l.094.054,42.57,24.578V578.26l-.094.054-42.57,24.578-.092-.054L363.283,578.26V528.994l.094-.054Zm42.295,24.846L405.947,504.79l-42.3,24.418v48.838l42.3,24.418,42.295-24.418Z" transform="translate(-353.039 -256.423)" fill="#1e73c9"/>
    <path id="Path_2705" data-name="Path 2705" d="M407.745,514.473l10.245,5.915v48.838l-10.245,5.915v.426l10.522-6.075.092-.053V520.174l-10.614-6.128Z" transform="translate(-407.745 -247.604)" fill="#1e73c9"/>
    <path id="Path_2706" data-name="Path 2706" d="M383.714,542.868l.092.053L426.378,567.5v49.266l-.092.053L383.714,641.4l-.092-.054-42.57-24.578V567.5l.092-.054Zm42.3,24.846-42.3-24.418-42.293,24.418v48.838l42.293,24.42,42.3-24.42Z" transform="translate(-288.328 -368.422)" fill="#1e73c9"/>
    <path id="Path_2707" data-name="Path 2707" d="M385.514,549.316l10.429-6.021,42.295,24.419v48.838L395.943,640.97l-10.429-6.021v.426l10.337,5.968.092.053,42.572-24.578.092-.053V567.5l-42.571-24.578-.092-.053-10.429,6.021Z" transform="translate(-385.514 -368.421)" fill="#1e73c9"/>
    <path id="Path_2708" data-name="Path 2708" d="M407.745,591.484,417.99,597.4v48.838l-10.245,5.915v.426l10.522-6.075.092-.053V597.186l-10.614-6.128Z" transform="translate(-407.745 -471.613)" fill="#1e73c9"/>
    <path id="Path_2709" data-name="Path 2709" d="M403.779,658.386v27.6l-42.3,24.419-42.295-24.419v-27.6h-.369V686.2l42.572,24.578.092.053,42.572-24.578.092-.053V658.386Z" transform="translate(-223.991 -658.386)" fill="#1e73c9"/>
    <path id="Path_2710" data-name="Path 2710" d="M448.241,658.386v27.6L405.947,710.4l-42.3-24.419v-27.6h-.369V686.2l42.571,24.578.092.053,42.57-24.578.092-.053V658.386Z" transform="translate(-353.038 -658.386)" fill="#1e73c9"/>
    <path id="Path_2711" data-name="Path 2711" d="M256.087,423V381.21l54.4-31.408,54.4,31.408V423h1.923V380.1l-56.324-32.518L254.164,380.1V423Z" transform="translate(-63.555 222.702)" fill="#1e73c9"/>
    <path id="Path_2712" data-name="Path 2712" d="M314.034,423V381.21l54.4-31.408,54.4,31.408V423h1.923V380.1l-56.324-32.518L312.111,380.1V423Z" transform="translate(-231.753 222.702)" fill="#1e73c9"/>
    <path id="Path_2713" data-name="Path 2713" d="M450.761,381.21V423h1.923V380.1l-56.322-32.518-26.3,15.186v2.22l26.3-15.186Z" transform="translate(-370.058 222.702)" fill="#1e73c9"/>
    <path id="Path_2714" data-name="Path 2714" d="M339.461,369.163l56.324,32.518v65.037l-56.324,32.518-56.324-32.518V401.681Zm54.4,33.628-54.4-31.409-54.4,31.409v62.817l54.4,31.407,54.4-31.407Z" transform="translate(-147.654 105.231)" fill="#1e73c9"/>
    <path id="Path_2715" data-name="Path 2715" d="M397.407,369.163l56.322,32.518v65.037l-56.322,32.518-56.322-32.518V401.681Zm54.4,33.628-54.4-31.409-54.4,31.409v62.817l54.4,31.407,54.4-31.407Z" transform="translate(-315.742 105.231)" fill="#1e73c9"/>
    <path id="Path_2716" data-name="Path 2716" d="M399.031,380.163l25.342,14.631v62.817l-25.342,14.631v2.22L426.3,458.721V393.684l-27.265-15.741Z" transform="translate(-399.031 113.227)" fill="#1e73c9"/>
    <path id="Path_2717" data-name="Path 2717" d="M368.435,419.347l56.324,32.518V516.9l-56.324,32.518L312.111,516.9V451.865Zm54.4,33.628-54.4-31.407-54.4,31.407v62.817l54.4,31.407,54.4-31.407Z" transform="translate(-231.754 -40.679)" fill="#1e73c9"/>
    <path id="Path_2718" data-name="Path 2718" d="M370.058,436.753l26.3-15.187,54.4,31.408v62.817l-54.4,31.408-26.3-15.186v2.22l26.3,15.186L452.684,516.9V451.865l-56.322-32.518-26.3,15.186Z" transform="translate(-370.058 -40.679)" fill="#1e73c9"/>
    <path id="Path_2719" data-name="Path 2719" d="M399.031,480.53l25.342,14.631v62.817L399.031,572.61v2.22L426.3,559.089V494.052L399.031,478.31Z" transform="translate(-399.031 -178.64)" fill="#1e73c9"/>
    <path id="Path_2720" data-name="Path 2720" d="M397.407,569.9l56.322,32.518v65.037L397.407,699.97l-56.322-32.518V602.416Zm54.4,33.628-54.4-31.407-54.4,31.407v62.817l54.4,31.407,54.4-31.407Z" transform="translate(-315.742 -478.447)" fill="#1e73c9"/>
    <path id="Path_2721" data-name="Path 2721" d="M372.279,620.082l50.557,29.189v62.817l-54.4,31.408-54.4-31.408V649.27l50.556-29.189h-3.845L312.111,648.16V713.2l56.324,32.518L424.758,713.2V648.16l-48.635-28.079Z" transform="translate(-231.753 -620.082)" fill="#1e73c9"/>
    <path id="Path_2722" data-name="Path 2722" d="M396.362,743.5l-26.3-15.186v2.22l26.3,15.186L452.684,713.2V648.16l-48.633-28.079h-3.845l50.555,29.189v62.817Z" transform="translate(-370.058 -620.082)" fill="#1e73c9"/>
    <path id="Path_2723" data-name="Path 2723" d="M401.546,692.013l22.459-12.967h-3.844l-18.615,10.747Z" transform="translate(-401.546 -679.045)" fill="#1e73c9"/>
    <path id="Path_2724" data-name="Path 2724" d="M384.844,670.265,337.17,697.789,289.5,670.265h-3.846l51.519,29.744,51.519-29.744Z" transform="translate(-145.366 -670.265)" fill="#1e73c9"/>
    <path id="Path_2725" data-name="Path 2725" d="M442.789,670.265l-47.673,27.524-47.672-27.524H343.6l51.517,29.744,51.519-29.744Z" transform="translate(-313.452 -670.265)" fill="#1e73c9"/>
    <path id="Path_2726" data-name="Path 2726" d="M401.546,692.012l22.46-12.967h-3.845l-18.615,10.747Z" transform="translate(-401.546 -679.045)" fill="#1e73c9"/>
    <path id="Path_2727" data-name="Path 2727" d="M210.551,410.441a5.857,5.857,0,1,0-5.857-5.857A5.858,5.858,0,0,0,210.551,410.441Z" transform="translate(180.912 137.537)" fill="#1e73c9"/>
    <path id="Path_2728" data-name="Path 2728" d="M209.508,425.543a3.667,3.667,0,1,0,3.667,3.667A3.668,3.668,0,0,0,209.508,425.543Z" transform="translate(181.955 64.004)" fill="#1e73c9"/>
    <path id="Path_2729" data-name="Path 2729" d="M231.563,438.571a3.3,3.3,0,1,0,3.3,3.3A3.3,3.3,0,0,0,231.563,438.571Z" transform="translate(117.421 26.842)" fill="#1e73c9"/>
    <ellipse id="Ellipse_62" data-name="Ellipse 62" cx="1.699" cy="1.699" rx="1.699" ry="1.699" transform="translate(347.285 564.947)" fill="#1e73c9"/>
    <path id="Path_2730" data-name="Path 2730" d="M253.825,400.033a3.36,3.36,0,1,0,3.359,3.361A3.36,3.36,0,0,0,253.825,400.033Z" transform="translate(52.998 138.728)" fill="#1e73c9"/>
    <path id="Path_2731" data-name="Path 2731" d="M255.035,436.175a5.9,5.9,0,1,0-5.9-5.9A5.9,5.9,0,0,0,255.035,436.175Z" transform="translate(51.783 62.938)" fill="#1e73c9"/>
    <path id="Path_2732" data-name="Path 2732" d="M275.638,387.655a2.487,2.487,0,1,0,2.488,2.488A2.486,2.486,0,0,0,275.638,387.655Z" transform="translate(-11.16 176.504)" fill="#1e73c9"/>
    <path id="Path_2733" data-name="Path 2733" d="M298.87,399.392a4.584,4.584,0,1,0,4.584,4.584A4.584,4.584,0,0,0,298.87,399.392Z" transform="translate(-76.738 138.146)" fill="#1e73c9"/>
    <ellipse id="Ellipse_63" data-name="Ellipse 63" cx="5.471" cy="5.471" rx="5.471" ry="5.471" transform="translate(216.66 487.742)" fill="#1e73c9"/>
    <path id="Path_2734" data-name="Path 2734" d="M320.28,387.46a2.859,2.859,0,1,0,2.859,2.859A2.859,2.859,0,0,0,320.28,387.46Z" transform="translate(-140.494 176.328)" fill="#1e73c9"/>
    <path id="Path_2735" data-name="Path 2735" d="M342.715,400.07A3.289,3.289,0,1,0,346,403.36,3.289,3.289,0,0,0,342.715,400.07Z" transform="translate(-205.274 138.761)" fill="#1e73c9"/>
    <ellipse id="Ellipse_64" data-name="Ellipse 64" cx="2.345" cy="2.345" rx="2.345" ry="2.345" transform="translate(135.096 490.87)" fill="#1e73c9"/>
    <path id="Path_2736" data-name="Path 2736" d="M364.432,387.8a2.211,2.211,0,1,0,2.211,2.211A2.209,2.209,0,0,0,364.432,387.8Z" transform="translate(-269.338 176.637)" fill="#1e73c9"/>
    <path id="Path_2737" data-name="Path 2737" d="M387.27,399.969a3.482,3.482,0,1,0,3.481,3.483A3.483,3.483,0,0,0,387.27,399.969Z" transform="translate(-334.362 138.669)" fill="#1e73c9"/>
    <ellipse id="Ellipse_65" data-name="Ellipse 65" cx="3.954" cy="3.954" rx="3.954" ry="3.954" transform="translate(48.954 489.26)" fill="#1e73c9"/>
    <path id="Path_2738" data-name="Path 2738" d="M409.427,387.218a3.321,3.321,0,1,0,3.321,3.321A3.322,3.322,0,0,0,409.427,387.218Z" transform="translate(-398.997 176.108)" fill="#1e73c9"/>
    <path id="Path_2739" data-name="Path 2739" d="M232.1,463.649a4.431,4.431,0,1,0,4.431,4.431A4.431,4.431,0,0,0,232.1,463.649Z" transform="translate(116.881 -48.372)" fill="#1e73c9"/>
    <path id="Path_2740" data-name="Path 2740" d="M275.532,443.642a2.265,2.265,0,1,0-2.264-2.264A2.266,2.266,0,0,0,275.532,443.642Z" transform="translate(-11.054 27.335)" fill="#1e73c9"/>
    <path id="Path_2741" data-name="Path 2741" d="M276.458,463.768a4.2,4.2,0,1,0,4.2,4.2A4.2,4.2,0,0,0,276.458,463.768Z" transform="translate(-11.982 -48.263)" fill="#1e73c9"/>
    <ellipse id="Ellipse_66" data-name="Ellipse 66" cx="2.653" cy="2.653" rx="2.653" ry="2.653" transform="translate(219.479 392.554)" fill="#1e73c9"/>
    <path id="Path_2742" data-name="Path 2742" d="M321.876,449.464a6.208,6.208,0,1,0-6.208-6.208A6.208,6.208,0,0,0,321.876,449.464Z" transform="translate(-142.089 25.456)" fill="#1e73c9"/>
    <path id="Path_2743" data-name="Path 2743" d="M365.573,437.888a4.6,4.6,0,1,0,4.6,4.6A4.6,4.6,0,0,0,365.573,437.888Z" transform="translate(-270.475 26.219)" fill="#1e73c9"/>
    <path id="Path_2744" data-name="Path 2744" d="M387.8,476.4a4.589,4.589,0,1,0,4.588,4.59A4.59,4.59,0,0,0,387.8,476.4Z" transform="translate(-334.892 -85.784)" fill="#1e73c9"/>
    <path id="Path_2745" data-name="Path 2745" d="M365.957,463.137a5.409,5.409,0,1,0,5.411,5.41A5.409,5.409,0,0,0,365.957,463.137Z" transform="translate(-270.858 -48.838)" fill="#1e73c9"/>
    <path id="Path_2746" data-name="Path 2746" d="M410.187,437.722a4.92,4.92,0,1,0,4.92,4.92A4.919,4.919,0,0,0,410.187,437.722Z" transform="translate(-399.758 26.07)" fill="#1e73c9"/>
    <path id="Path_2747" data-name="Path 2747" d="M250.376,480.486a3.528,3.528,0,1,0,3.529-3.529A3.528,3.528,0,0,0,250.376,480.486Z" transform="translate(52.918 -85.279)" fill="#1e73c9"/>
    <ellipse id="Ellipse_67" data-name="Ellipse 67" cx="2.845" cy="2.845" rx="2.845" ry="2.845" transform="translate(176.942 416.864)" fill="#1e73c9"/>
    <path id="Path_2748" data-name="Path 2748" d="M342.6,477.208a3.049,3.049,0,1,0,3.048,3.05A3.049,3.049,0,0,0,342.6,477.208Z" transform="translate(-205.159 -85.05)" fill="#1e73c9"/>
    <ellipse id="Ellipse_68" data-name="Ellipse 68" cx="3.019" cy="3.019" rx="3.019" ry="3.019" transform="translate(7.409 318.682)" fill="#1e73c9"/>
    <path id="Path_2749" data-name="Path 2749" d="M387.484,510.278a3.93,3.93,0,1,0-3.93-3.93A3.931,3.931,0,0,0,387.484,510.278Z" transform="translate(-334.577 -160.144)" fill="#1e73c9"/>
    <ellipse id="Ellipse_69" data-name="Ellipse 69" cx="3.759" cy="3.759" rx="3.759" ry="3.759" transform="translate(6.669 415.949)" fill="#1e73c9"/>
    <path id="Path_2750" data-name="Path 2750" d="M298.851,511.178a4.54,4.54,0,1,0-4.542-4.54A4.541,4.541,0,0,0,298.851,511.178Z" transform="translate(-76.719 -160.435)" fill="#1e73c9"/>
    <path id="Path_2751" data-name="Path 2751" d="M325.879,519.558a4.715,4.715,0,1,0-4.716,4.714A4.716,4.716,0,0,0,325.879,519.558Z" transform="translate(-141.376 -197.855)" fill="#1e73c9"/>
    <ellipse id="Ellipse_70" data-name="Ellipse 70" cx="2.849" cy="2.849" rx="2.849" ry="2.849" transform="translate(134.592 245.347)" fill="#1e73c9"/>
    <ellipse id="Ellipse_71" data-name="Ellipse 71" cx="3.711" cy="3.711" rx="3.711" ry="3.711" transform="translate(176.076 268.988)" fill="#1e73c9"/>
    <ellipse id="Ellipse_72" data-name="Ellipse 72" cx="3.959" cy="3.959" rx="3.959" ry="3.959" transform="translate(133.483 342.244)" fill="#1e73c9"/>
    <ellipse id="Ellipse_73" data-name="Ellipse 73" cx="5.624" cy="5.624" rx="5.624" ry="5.624" transform="translate(89.477 267.075)" fill="#1e73c9"/>
    <path id="Path_2752" data-name="Path 2752" d="M387.125,554.153a3.177,3.177,0,1,0,3.176,3.178A3.177,3.177,0,0,0,387.125,554.153Z" transform="translate(-334.217 -309.134)" fill="#1e73c9"/>
    <path id="Path_2753" data-name="Path 2753" d="M366.032,514.4a5.564,5.564,0,1,0,5.564,5.564A5.563,5.563,0,0,0,366.032,514.4Z" transform="translate(-270.933 -198.259)" fill="#1e73c9"/>
    <ellipse id="Ellipse_74" data-name="Ellipse 74" cx="2.524" cy="2.524" rx="2.524" ry="2.524" transform="translate(7.905 270.174)" fill="#1e73c9"/>
    <path id="Path_2754" data-name="Path 2754" d="M342.4,636.7a2.62,2.62,0,1,0-2.62-2.62A2.62,2.62,0,0,0,342.4,636.7Z" transform="translate(-204.956 -532.795)" fill="#1e73c9"/>
    <path id="Path_2755" data-name="Path 2755" d="M342.606,579.885a3.059,3.059,0,1,0,3.059,3.059A3.06,3.06,0,0,0,342.606,579.885Z" transform="translate(-205.165 -383.752)" fill="#1e73c9"/>
    <path id="Path_2756" data-name="Path 2756" d="M366.225,603.141a5.973,5.973,0,1,0-5.971-5.973A5.973,5.973,0,0,0,366.225,603.141Z" transform="translate(-271.125 -422.476)" fill="#1e73c9"/>
    <path id="Path_2757" data-name="Path 2757" d="M387.159,579.786a3.248,3.248,0,1,0,3.248,3.248A3.248,3.248,0,0,0,387.159,579.786Z" transform="translate(-334.251 -383.842)" fill="#1e73c9"/>
    <path id="Path_2758" data-name="Path 2758" d="M410.161,591.775a4.865,4.865,0,1,0,4.865,4.865A4.865,4.865,0,0,0,410.161,591.775Z" transform="translate(-399.731 -421.948)" fill="#1e73c9"/>
    <path id="Path_2759" data-name="Path 2759" d="M410.936,629.574a6.489,6.489,0,1,0-6.489-6.489A6.488,6.488,0,0,0,410.936,629.574Z" transform="translate(-400.507 -497.396)" fill="#1e73c9"/>
    <path id="Path_2760" data-name="Path 2760" d="M339.3,660.179a3.525,3.525,0,1,0,3.525-3.526A3.525,3.525,0,0,0,339.3,660.179Z" transform="translate(-205.386 -607.95)" fill="#1e73c9"/>
    <path id="Path_2761" data-name="Path 2761" d="M387.8,630.423a4.594,4.594,0,1,0,4.594,4.594A4.593,4.593,0,0,0,387.8,630.423Z" transform="translate(-334.893 -533.736)" fill="#1e73c9"/>
    <path id="Path_2762" data-name="Path 2762" d="M387.8,665.271a4.587,4.587,0,1,0-4.588-4.588A4.588,4.588,0,0,0,387.8,665.271Z" transform="translate(-334.89 -608.454)" fill="#1e73c9"/>
    <path id="Path_2763" data-name="Path 2763" d="M320.656,669.423a3.65,3.65,0,1,0,3.65,3.65A3.65,3.65,0,0,0,320.656,669.423Z" transform="translate(-140.87 -645.369)" fill="#1e73c9"/>
    <path id="Path_2764" data-name="Path 2764" d="M365.3,669.22a4.037,4.037,0,1,0,4.038,4.037A4.037,4.037,0,0,0,365.3,669.22Z" transform="translate(-270.208 -645.553)" fill="#1e73c9"/>
    <path id="Path_2765" data-name="Path 2765" d="M201.069,429.8v-51.9l51.623-29.8,51.623,29.8v51.9h.45V377.646l-51.96-30-.113-.065-51.96,30-.113.065V429.8Z" transform="translate(100.344 215.9)" fill="#1e73c9"/>
    <path id="Path_2766" data-name="Path 2766" d="M255.337,429.8v-51.9l51.623-29.8,51.623,29.8v51.9h.451V377.646l-51.96-30-.113-.065-51.961,30-.112.065V429.8Z" transform="translate(-57.168 215.9)" fill="#1e73c9"/>
    <path id="Path_2767" data-name="Path 2767" d="M309.607,429.8v-51.9l51.623-29.8,51.623,29.8v51.9h.45V377.646l-51.96-30-.112-.065-51.96,30-.112.065V429.8Z" transform="translate(-214.701 215.9)" fill="#1e73c9"/>
    <path id="Path_2768" data-name="Path 2768" d="M447.869,377.906v51.9h.45V377.646l-51.959-30-.112-.065-32.823,18.95v.521l32.823-18.95Z" transform="translate(-353.019 215.9)" fill="#1e73c9"/>
    <path id="Path_2769" data-name="Path 2769" d="M334.094,374.674l.113.065,51.96,30v60.128l-.113.065-51.96,30-.113-.065-51.96-30V404.738l.113-.067ZM385.718,405l-51.623-29.8L282.471,405v59.609l51.623,29.8,51.623-29.8Z" transform="translate(-135.934 99.006)" fill="#1e73c9"/>
    <path id="Path_2770" data-name="Path 2770" d="M388.361,374.674l.113.065,51.96,30v60.128l-.113.065-51.96,30-.113-.065-51.958-30V404.738l.113-.067ZM439.985,405l-51.623-29.8L336.74,405v59.609l51.622,29.8,51.623-29.8Z" transform="translate(-293.287 99.006)" fill="#1e73c9"/>
    <path id="Path_2771" data-name="Path 2771" d="M390.559,380.943l32.6,18.82v59.609l-32.6,18.82v.521L423.494,459.7l.112-.065V399.5l-33.048-19.08Z" transform="translate(-380.152 104.24)" fill="#1e73c9"/>
    <path id="Path_2772" data-name="Path 2772" d="M361.23,421.672l.111.067,51.962,30v60.13l-.113.065-51.96,30-.113-.065-51.962-30v-60.13l.113-.065ZM412.852,452l-51.621-29.8L309.607,452v59.609l51.623,29.8,51.621-29.8Z" transform="translate(-214.701 -37.631)" fill="#1e73c9"/>
    <path id="Path_2773" data-name="Path 2773" d="M363.425,441.143l32.823-18.95L447.869,452v59.609l-51.621,29.8-32.823-18.95v.52l32.71,18.885.113.065,51.958-30,.113-.065V451.736l-51.959-30-.112-.065-32.823,18.95Z" transform="translate(-353.019 -37.63)" fill="#1e73c9"/>
    <path id="Path_2774" data-name="Path 2774" d="M388.361,468.67l.113.065,51.96,30v60.13l-.113.065-51.96,30-.113-.065-51.958-30v-60.13l.113-.065ZM439.985,499l-51.623-29.8L336.74,499V558.6l51.622,29.8,51.623-29.8Z" transform="translate(-293.287 -174.326)" fill="#1e73c9"/>
    <path id="Path_2775" data-name="Path 2775" d="M390.559,474.939l32.6,18.82v59.609l-32.6,18.82v.521l32.935-19.015.112-.065V493.5l-33.048-19.08Z" transform="translate(-380.152 -169.089)" fill="#1e73c9"/>
    <path id="Path_2776" data-name="Path 2776" d="M361.23,609.664l.111.065,51.962,30v60.13l-.113.065-51.96,30-.113-.067-51.962-30v-60.13l.113-.065Zm51.621,30.324-51.621-29.8-51.623,29.8V699.6l51.623,29.8,51.621-29.8Z" transform="translate(-214.701 -584.383)" fill="#1e73c9"/>
    <path id="Path_2777" data-name="Path 2777" d="M363.425,629.135l32.823-18.95,51.621,29.8V699.6l-51.621,29.8-32.823-18.95v.52l32.71,18.885.113.065,51.958-30,.113-.065V639.729l-51.959-30-.112-.065-32.823,18.95Z" transform="translate(-353.019 -584.383)" fill="#1e73c9"/>
    <path id="Path_2778" data-name="Path 2778" d="M439.984,656.662v17.29l-51.623,29.8-51.621-29.8v-17.29h-.45v17.551l51.959,30,.112.065,51.96-30,.113-.065V656.662Z" transform="translate(-293.287 -648.542)" fill="#1e73c9"/>
    <path id="Path_2779" data-name="Path 2779" d="M390.559,699.042l32.935-19.015.112-.065V662.411h-.45V679.7l-32.6,18.82Z" transform="translate(-380.152 -654.29)" fill="#1e73c9"/>
    <path id="Path_2780" data-name="Path 2780" d="M303.314,449.639V388.626l66.4-38.335,66.4,38.335v61.014h2.347V387.271l-68.745-39.689-68.745,39.689v62.368Z" transform="translate(-224.174 196.064)" fill="#1e73c9"/>
    <path id="Path_2781" data-name="Path 2781" d="M438.441,388.626v61.014h2.347V387.271l-68.743-39.689-.351.2v2.709l.351-.2Z" transform="translate(-361.288 196.064)" fill="#1e73c9"/>
    <path id="Path_2782" data-name="Path 2782" d="M407.056,480.609l1.524-.88v-79.38l-1.524-.88Z" transform="translate(-396.65 66.057)" fill="#1e73c9"/>
    <path id="Path_2783" data-name="Path 2783" d="M336.331,621.2l67.92,39.215L473,620.731V541.35l-68.744-39.689-67.92,39.213Zm67.92-116.834,66.4,38.334v76.672l-66.4,38.334-66.4-38.334V542.7Z" transform="translate(-325.924 -308.755)" fill="#1e73c9"/>
    <path id="Path_2784" data-name="Path 2784" d="M369.713,562.912,438.459,602.6v79.38l-68.746,39.691-68.746-39.691V602.6Zm66.4,41.045-66.4-38.336-66.4,38.336v76.67l66.4,38.336,66.4-38.336Z" transform="translate(-224.175 -486.801)" fill="#1e73c9"/>
    <path id="Path_2785" data-name="Path 2785" d="M371.694,565.824l.351-.2,66.4,38.335v76.671l-66.4,38.335-.351-.2v2.71l.351.2,68.743-39.689V602.6l-68.743-39.69-.351.2Z" transform="translate(-361.288 -486.8)" fill="#1e73c9"/>
    <path id="Path_2786" data-name="Path 2786" d="M336.331,624.164v70.5l67.92,39.214L473,694.187V624.164h-2.347v68.669l-66.4,38.335-66.4-38.335V624.164Z" transform="translate(-325.924 -616.043)" fill="#1e73c9"/>
    <path id="Path_2787" data-name="Path 2787" d="M407.056,715.378l1.524-.88V644.475h-1.524Z" transform="translate(-396.65 -636.354)" fill="#1e73c9"/>
    <ellipse id="Ellipse_75" data-name="Ellipse 75" cx="5.407" cy="5.407" rx="5.407" ry="5.407" transform="translate(399.476 588.268)" fill="#1e73c9"/>
    <path id="Path_2788" data-name="Path 2788" d="M257.45,372.126a5.129,5.129,0,1,0,5.13,5.13A5.13,5.13,0,0,0,257.45,372.126Z" transform="translate(44.069 216.42)" fill="#1e73c9"/>
    <ellipse id="Ellipse_76" data-name="Ellipse 76" cx="3.238" cy="3.238" rx="3.238" ry="3.238" transform="translate(246.6 560.504)" fill="#1e73c9"/>
    <path id="Path_2789" data-name="Path 2789" d="M393.346,387.545a5.6,5.6,0,1,0,5.6,5.6A5.6,5.6,0,0,0,393.346,387.545Z" transform="translate(-350.118 170.597)" fill="#1e73c9"/>
    <ellipse id="Ellipse_77" data-name="Ellipse 77" cx="6.603" cy="6.603" rx="6.603" ry="6.603" transform="translate(88.189 587.073)" fill="#1e73c9"/>
    <path id="Path_2790" data-name="Path 2790" d="M225.617,392.529a4.307,4.307,0,1,0,4.307-4.307A4.307,4.307,0,0,0,225.617,392.529Z" transform="translate(123.111 171.213)" fill="#1e73c9"/>
    <ellipse id="Ellipse_78" data-name="Ellipse 78" cx="3.472" cy="3.472" rx="3.472" ry="3.472" transform="translate(194.682 590.203)" fill="#1e73c9"/>
    <ellipse id="Ellipse_79" data-name="Ellipse 79" cx="3.72" cy="3.72" rx="3.72" ry="3.72" transform="translate(142.75 560.021)" fill="#1e73c9"/>
    <path id="Path_2791" data-name="Path 2791" d="M392.964,428.893a4.8,4.8,0,1,0-4.8-4.8A4.8,4.8,0,0,0,392.964,428.893Z" transform="translate(-349.736 79.912)" fill="#1e73c9"/>
    <ellipse id="Ellipse_80" data-name="Ellipse 80" cx="5.542" cy="5.542" rx="5.542" ry="5.542" transform="translate(244.295 498.464)" fill="#1e73c9"/>
    <path id="Path_2792" data-name="Path 2792" d="M317.773,440.218a5.755,5.755,0,1,0-5.755,5.753A5.754,5.754,0,0,0,317.773,440.218Z" transform="translate(-113.863 33.883)" fill="#1e73c9"/>
    <ellipse id="Ellipse_81" data-name="Ellipse 81" cx="3.478" cy="3.478" rx="3.478" ry="3.478" transform="translate(142.993 380.907)" fill="#1e73c9"/>
    <path id="Path_2793" data-name="Path 2793" d="M311.433,475.5a4.529,4.529,0,1,0-4.529-4.529A4.528,4.528,0,0,0,311.433,475.5Z" transform="translate(-113.279 -56.676)" fill="#1e73c9"/>
    <ellipse id="Ellipse_82" data-name="Ellipse 82" cx="4.832" cy="4.832" rx="4.832" ry="4.832" transform="translate(141.639 499.173)" fill="#1e73c9"/>
    <ellipse id="Ellipse_83" data-name="Ellipse 83" cx="6.864" cy="6.864" rx="6.864" ry="6.864" transform="translate(87.929 407.425)" fill="#1e73c9"/>
    <path id="Path_2794" data-name="Path 2794" d="M392.525,482.443a3.878,3.878,0,1,0,3.877,3.879A3.879,3.879,0,0,0,392.525,482.443Z" transform="translate(-349.297 -101.936)" fill="#1e73c9"/>
    <path id="Path_2795" data-name="Path 2795" d="M366.781,433.92a6.792,6.792,0,1,0,6.791,6.793A6.794,6.794,0,0,0,366.781,433.92Z" transform="translate(-271.988 33.387)" fill="#1e73c9"/>
    <path id="Path_2796" data-name="Path 2796" d="M337.934,583.19a3.2,3.2,0,1,0-3.2-3.2A3.2,3.2,0,0,0,337.934,583.19Z" transform="translate(-191.463 -375.04)" fill="#1e73c9"/>
    <ellipse id="Ellipse_84" data-name="Ellipse 84" cx="3.733" cy="3.733" rx="3.733" ry="3.733" transform="translate(142.737 320.841)" fill="#1e73c9"/>
    <ellipse id="Ellipse_85" data-name="Ellipse 85" cx="7.29" cy="7.29" rx="7.29" ry="7.29" transform="translate(87.503 287.379)" fill="#1e73c9"/>
    <path id="Path_2797" data-name="Path 2797" d="M392.567,513.73a3.964,3.964,0,1,0,3.965,3.963A3.964,3.964,0,0,0,392.567,513.73Z" transform="translate(-349.339 -193.12)" fill="#1e73c9"/>
    <path id="Path_2798" data-name="Path 2798" d="M334.156,611.852a4.3,4.3,0,1,0,4.3-4.3A4.3,4.3,0,0,0,334.156,611.852Z" transform="translate(-191.988 -466.711)" fill="#1e73c9"/>
    <path id="Path_2799" data-name="Path 2799" d="M393.349,575.535a5.606,5.606,0,1,0,5.606,5.606A5.607,5.607,0,0,0,393.349,575.535Z" transform="translate(-350.121 -376.189)" fill="#1e73c9"/>
    <path id="Path_2800" data-name="Path 2800" d="M393.346,618.069a5.6,5.6,0,1,0-5.6-5.6A5.6,5.6,0,0,0,393.346,618.069Z" transform="translate(-350.118 -467.327)" fill="#1e73c9"/>
    <path id="Path_2801" data-name="Path 2801" d="M311.4,623.136a4.454,4.454,0,1,0,4.454,4.454A4.455,4.455,0,0,0,311.4,623.136Z" transform="translate(-113.243 -512.246)" fill="#1e73c9"/>
    <ellipse id="Ellipse_86" data-name="Ellipse 86" cx="4.928" cy="4.928" rx="4.928" ry="4.928" transform="translate(89.861 110.416)" fill="#1e73c9"/>
    <path id="Path_2802" data-name="Path 2802" d="M311.651,664.163a4.987,4.987,0,1,0-4.987-4.987A4.986,4.986,0,0,0,311.651,664.163Z" transform="translate(-113.497 -603.701)" fill="#1e73c9"/>
    <path id="Path_2803" data-name="Path 2803" d="M340.513,673.789a2.78,2.78,0,1,0-2.78,2.782A2.779,2.779,0,0,0,340.513,673.789Z" transform="translate(-191.263 -648.248)" fill="#1e73c9"/>
    <path id="Path_2804" data-name="Path 2804" d="M366.013,664.449a5.181,5.181,0,1,0-5.182-5.182A5.181,5.181,0,0,0,366.013,664.449Z" transform="translate(-271.223 -603.792)" fill="#1e73c9"/>
    <path id="Path_2805" data-name="Path 2805" d="M393.6,681.522a6.134,6.134,0,1,0-6.134-6.134A6.133,6.133,0,0,0,393.6,681.522Z" transform="translate(-350.373 -649.848)" fill="#1e73c9"/>
  </g>
</svg>
