<svg xmlns="http://www.w3.org/2000/svg" width="34.804" height="46.59" viewBox="0 0 34.804 46.59">
    <defs>
        <style>
            .prefix__cls-1{stroke:#000}
        </style>
    </defs>
    <g id="prefix__beer" transform="translate(-65.668 .5)">
        <path id="prefix__Path_1394" d="M78.253 17.992l-.815-13.33a5 5 0 0 0-.11-4.176.89.89 0 0 0-.793-.486h-5.488a.89.89 0 0 0-.793.485 5 5 0 0 0-.111 4.174l-.177 2.891a.89.89 0 1 0 1.778.109l.141-2.31H75.7l.8 13.227a.863.863 0 0 0 .526.759c.152.073 2.347 1.188 2.58 4.94H67.97c.233-3.752 2.428-4.867 2.58-4.94a.863.863 0 0 0 .526-.759l.189-3.1a.89.89 0 0 0-1.778-.109l-.16 2.621c-1.005.664-3.16 2.594-3.16 6.939v17.526a3.14 3.14 0 0 0 3.133 3.136h8.971a3.14 3.14 0 0 0 3.137-3.137V24.93c0-4.345-2.154-6.274-3.16-6.938zm-6.64-14.424a3.08 3.08 0 0 1 .045-1.787h4.265a3.08 3.08 0 0 1 .045 1.787zm8.019 36.06H67.949V26.056h11.683zm-1.356 4.18H69.3a1.357 1.357 0 0 1-1.356-1.356v-1.043h11.688v1.044a1.357 1.357 0 0 1-1.356 1.356z" class="prefix__cls-1" data-name="Path 1394"/>
        <path id="prefix__Path_1395" d="M114.873 314.041a3.607 3.607 0 1 0-3.607-3.607 3.611 3.611 0 0 0 3.607 3.607zm0-5.433a1.826 1.826 0 1 1-1.826 1.826 1.828 1.828 0 0 1 1.826-1.825z" class="prefix__cls-1" data-name="Path 1395" transform="translate(-41.082 -279.507)"/>
        <path id="prefix__Path_1396" d="M119.041 405.621h-5.291a.89.89 0 1 0 0 1.781h5.291a.89.89 0 1 0 0-1.781z" class="prefix__cls-1" data-name="Path 1396" transform="translate(-42.534 -369.504)"/>
        <path id="prefix__Path_1397" d="M106.43 120.751a.89.89 0 1 0 .29-1.262.9.9 0 0 0-.29 1.262c.032.049-.03-.051 0 0z" class="prefix__cls-1" data-name="Path 1397" transform="translate(-36.542 -108.741)"/>
        <path id="prefix__Path_1398" d="M276.654 77.483a.89.89 0 0 0-.89-.872h-1.9a3.728 3.728 0 0 0-4.64-3.278.411.411 0 0 1-.433-.175 4.714 4.714 0 0 0-7.231-.676 4.9 4.9 0 0 0-1.425 3.437v13.954a2.679 2.679 0 0 0 2.676 2.676c.061 0 .121 0 .181-.007.169.91.356 1.814.559 2.7a29.361 29.361 0 0 1 .887 5c.168 3.238-.821 4.675-1.207 5.108a1.328 1.328 0 0 0-1.062 1.3v2.382a1.328 1.328 0 0 0 1.326 1.326h11.351a1.328 1.328 0 0 0 1.326-1.326v-2.382a1.328 1.328 0 0 0-1.064-1.3 3.685 3.685 0 0 1-.593-.937 8.867 8.867 0 0 1-.613-4.17c.137-2.595.963-5.092 1.435-7.634a79.13 79.13 0 0 0 1.1-8.7c.161-2.206.269-4.217.223-6.429s-.006.04-.006.003zm-14.744 12.39V75.92a3.04 3.04 0 0 1 3.02-3.04 2.971 2.971 0 0 1 2.387 1.287 2.189 2.189 0 0 0 2.364.885 1.911 1.911 0 1 1 .5 3.755h-3.618a2.885 2.885 0 0 0-2.863 2.858v8.211a.908.908 0 0 1-.895.895.9.9 0 0 1-.895-.898zm12.476 18.7h-10.442V107.1h10.442zm-.8-16.293c-.488 2.623-1.321 5.189-1.463 7.867a10.465 10.465 0 0 0 .852 5.173h-7.613a10.466 10.466 0 0 0 .852-5.174 31.141 31.141 0 0 0-.93-5.3c-.229-1-.437-2.02-.62-3.045a2.694 2.694 0 0 0 .82-1.927v-8.212a1.088 1.088 0 0 1 1.079-1.077H270.182a3.733 3.733 0 0 0 3.377-2.2h1.32q0 .735-.025 1.471c0-.087 0-.174.007-.261q0 .13-.007.261c0-.009.016-.592 0 0a81.486 81.486 0 0 1-1.272 12.428z" class="prefix__cls-1" data-name="Path 1398" transform="translate(-176.69 -64.768)"/>
    </g>
</svg>
