<svg xmlns="http://www.w3.org/2000/svg" width="52.201" height="42.821" viewBox="0 0 52.201 42.821">
  <path id="delivery-bike" d="M46.541,27.386l-2.7-16.2a1.53,1.53,0,0,0,1.223-1.5V1.529A1.529,1.529,0,0,0,43.535,0H37.418a5.616,5.616,0,0,0-5.394,4.078H29.261a1.529,1.529,0,0,0,0,3.059h2.763a5.631,5.631,0,0,0,3.5,3.748l2.766,16.6a9.715,9.715,0,0,0-5.338,7.184H29.567V23.96A5.575,5.575,0,0,0,28.5,20.669,4.586,4.586,0,0,0,26,12.235H16.822a5.572,5.572,0,0,0-2.549.615V8.666a1.529,1.529,0,0,0-1.529-1.529H1.529A1.529,1.529,0,0,0,0,8.666V19.881a1.529,1.529,0,0,0,1.529,1.529H9.2A13.743,13.743,0,0,0,4.078,32.116v4.078a1.529,1.529,0,0,0,1.529,1.529H8.336a6.626,6.626,0,0,0,12.894,0H36.068a6.626,6.626,0,0,0,12.894,0h1.709A1.529,1.529,0,0,0,52.2,36.194a9.7,9.7,0,0,0-5.66-8.808ZM37.418,3.059h4.588v5.1H37.418a2.5,2.5,0,0,1-.334-.023l-.022,0a2.549,2.549,0,0,1,.356-5.072Zm1.261,8.157h2.067L43.3,26.54c-.259-.021-.52-.032-.784-.032a9.679,9.679,0,0,0-1.274.084Zm3.837,18.352a6.639,6.639,0,0,1,6.449,5.1h-12.9a6.639,6.639,0,0,1,6.449-5.1ZM16.822,15.293H26a1.529,1.529,0,1,1,0,3.059H14.274v-.51A2.552,2.552,0,0,1,16.822,15.293ZM3.058,10.2h8.157v8.157H3.058ZM7.137,32.116A10.717,10.717,0,0,1,17.842,21.411h6.117a2.552,2.552,0,0,1,2.549,2.549V34.665H7.137Zm7.647,7.647a3.573,3.573,0,0,1-3.224-2.039h6.447A3.573,3.573,0,0,1,14.783,39.763Zm27.732,0a3.573,3.573,0,0,1-3.224-2.039h6.447a3.573,3.573,0,0,1-3.224,2.039Zm0,0"/>
</svg>
