<svg xmlns="http://www.w3.org/2000/svg" xmlns:xlink="http://www.w3.org/1999/xlink" width="1600.001" height="551" viewBox="0 0 1600.001 551">
  <defs>
    <linearGradient id="linear-gradient" x1="0.5" x2="0.5" y2="1" gradientUnits="objectBoundingBox">
      <stop offset="0" stop-color="#1e73c9"/>
      <stop offset="1" stop-color="#185695"/>
    </linearGradient>
  </defs>
  <g id="blue_var" data-name="blue var" transform="translate(0 -7394)">
    <g id="Group_4211" data-name="Group 4211" transform="translate(0 2390)">
      <rect id="Rectangle_125" data-name="Rectangle 125" width="1600" height="551" transform="translate(0 5004)" fill="url(#linear-gradient)"/>
      <g id="Group_10549" data-name="Group 10549" transform="translate(1249.885 5004)" opacity="0.15">
        <path id="Path_2690" data-name="Path 2690" d="M244.069,388.844l-.078.046-36.328,20.974V451.9l.078.044,36.328,20.975.078-.046L280.476,451.9v-42.04l-.078-.046Zm-36.092,21.2,36.092-20.838,36.092,20.838V451.72l-36.092,20.836L207.978,451.72Z" transform="translate(-191.755 10.798)" fill="#fff"/>
        <path id="Path_2691" data-name="Path 2691" d="M288.533,388.844l-.078.046-36.328,20.974V451.9l.078.044,36.328,20.975.078-.046L324.939,451.9v-42.04l-.078-.046Zm-36.092,21.2,36.092-20.838,36.092,20.838V451.72l-36.092,20.836L252.441,451.72Z" transform="translate(-164.066 10.798)" fill="#fff"/>
        <path id="Path_2692" data-name="Path 2692" d="M333,388.844l-.078.046-36.328,20.974V451.9l.078.044L333,472.922l.078-.046L369.4,451.9v-42.04l-.078-.046Zm-36.092,21.2L333,389.208l36.092,20.838V451.72L333,472.557,296.9,451.72Z" transform="translate(-136.315 10.798)" fill="#fff"/>
        <path id="Path_2693" data-name="Path 2693" d="M377.459,388.844l-.078.046-36.328,20.974V451.9l.078.044,36.328,20.975.078-.046L413.863,451.9v-42.04l-.078-.046Zm-36.092,21.2,36.092-20.838,36.09,20.838V451.72l-36.09,20.836L341.367,451.72Z" transform="translate(-108.74 10.798)" fill="#fff"/>
        <path id="Path_2694" data-name="Path 2694" d="M430.82,394.347l-8.9-5.138-36.092,20.837v41.675l36.092,20.837,8.9-5.138v.364L422,472.876l-.079.046-36.328-20.974-.079-.045V409.864l36.328-20.974.079-.046,8.9,5.138Z" transform="translate(-80.706 10.798)" fill="#fff"/>
        <path id="Path_2695" data-name="Path 2695" d="M266.3,427.35l-.078.046L229.9,448.369v42.04l.078.044L266.3,511.428l.08-.046,36.327-20.973v-42.04l-.078-.046Zm-36.09,21.2,36.09-20.838,36.093,20.838v41.675L266.3,511.063l-36.09-20.837Z" transform="translate(-177.737 -90.346)" fill="#fff"/>
        <path id="Path_2696" data-name="Path 2696" d="M310.763,427.35l-.078.046-36.327,20.973v42.04l.078.044,36.327,20.975.08-.046,36.328-20.973v-42.04l-.08-.046Zm-36.092,21.2,36.092-20.838,36.092,20.838v41.675l-36.092,20.837-36.092-20.837Z" transform="translate(-150.19 -90.346)" fill="#fff"/>
        <path id="Path_2697" data-name="Path 2697" d="M355.226,427.35l-.078.046L318.82,448.369v42.04l.08.044,36.327,20.975.08-.046,36.327-20.973v-42.04l-.078-.046Zm-36.09,21.2,36.09-20.838,36.092,20.838v41.675l-36.092,20.837-36.09-20.837Z" transform="translate(-122.44 -90.346)" fill="#fff"/>
        <path id="Path_2698" data-name="Path 2698" d="M399.689,427.35l-.08.046-36.327,20.973v42.04l.08.044,36.327,20.975.078-.046L436.1,490.409v-42.04l-.08-.046Zm-36.092,21.2,36.092-20.838,36.092,20.838v41.675l-36.092,20.837L363.6,490.226Z" transform="translate(-94.723 -90.346)" fill="#fff"/>
        <path id="Path_2699" data-name="Path 2699" d="M416.8,437.4l-8.742,5.047V484.12l8.742,5.047v.364l-8.978-5.184-.079-.045V442.264l9.057-5.229Z" transform="translate(-66.688 -84.233)" fill="#fff"/>
        <path id="Path_2700" data-name="Path 2700" d="M333,465.856l-.078.046-36.328,20.974v42.04l.078.046L333,549.934l.078-.046L369.4,528.915v-42.04l-.078-.046Zm-36.092,21.2L333,466.221l36.092,20.836v41.675L333,549.569,296.9,528.732Z" transform="translate(-136.315 -191.567)" fill="#fff"/>
        <path id="Path_2701" data-name="Path 2701" d="M377.459,465.856l-.078.046-36.328,20.974v42.04l.078.046,36.328,20.974.078-.046,36.327-20.974v-42.04l-.078-.046Zm-36.092,21.2,36.092-20.836,36.09,20.836v41.675l-36.09,20.837-36.092-20.837Z" transform="translate(-108.74 -191.567)" fill="#fff"/>
        <path id="Path_2702" data-name="Path 2702" d="M430.82,471.358l-8.9-5.138-36.092,20.837v41.675l36.092,20.837,8.9-5.138v.364L422,549.888l-.079.045L385.593,528.96l-.079-.046V486.876L421.842,465.9l.079-.046,8.9,5.138Z" transform="translate(-80.706 -191.567)" fill="#fff"/>
        <path id="Path_2703" data-name="Path 2703" d="M355.226,504.362l-.078.046L318.82,525.381v42.04l.08.046,36.327,20.973.08-.046,36.327-20.973v-42.04l-.078-.046Zm-36.09,21.2,36.09-20.836,36.092,20.836v41.675l-36.092,20.836-36.09-20.836Z" transform="translate(-122.44 -292.787)" fill="#fff"/>
        <path id="Path_2704" data-name="Path 2704" d="M399.689,504.362l-.08.046-36.327,20.974v42.04l.08.046,36.327,20.973.078-.046L436.1,567.421v-42.04l-.08-.046Zm-36.092,21.2,36.092-20.836,36.092,20.836v41.675l-36.092,20.836L363.6,567.239Z" transform="translate(-94.723 -292.787)" fill="#fff"/>
        <path id="Path_2705" data-name="Path 2705" d="M416.8,514.41l-8.742,5.047v41.675l8.742,5.047v.364l-8.978-5.184-.079-.045V519.275l9.057-5.229Z" transform="translate(-66.688 -286.683)" fill="#fff"/>
        <path id="Path_2706" data-name="Path 2706" d="M377.459,542.868l-.078.046-36.328,20.974v42.04l.078.046,36.328,20.974.078-.046,36.327-20.974v-42.04l-.078-.046Zm-36.092,21.2,36.092-20.836,36.09,20.836v41.675l-36.09,20.838-36.092-20.838Z" transform="translate(-108.74 -394.007)" fill="#fff"/>
        <path id="Path_2707" data-name="Path 2707" d="M430.82,548.37l-8.9-5.138-36.092,20.837v41.675l36.092,20.837,8.9-5.138v.364L422,626.9l-.079.045-36.328-20.974-.079-.045V563.887l36.328-20.974.079-.045,8.9,5.138Z" transform="translate(-80.706 -394.007)" fill="#fff"/>
        <path id="Path_2708" data-name="Path 2708" d="M416.8,591.422l-8.742,5.047v41.675l8.742,5.047v.364l-8.978-5.184-.079-.046V596.287l9.057-5.229Z" transform="translate(-66.688 -489.132)" fill="#fff"/>
        <path id="Path_2709" data-name="Path 2709" d="M319.135,658.386v23.55l36.092,20.837,36.091-20.837v-23.55h.315v23.732l-36.328,20.974-.079.045L318.9,682.163l-.079-.045V658.386Z" transform="translate(-122.439 -658.386)" fill="#fff"/>
        <path id="Path_2710" data-name="Path 2710" d="M363.6,658.386v23.55l36.09,20.837,36.092-20.837v-23.55h.315v23.732l-36.328,20.974-.079.045-36.327-20.974-.079-.045V658.386Z" transform="translate(-94.723 -658.386)" fill="#fff"/>
        <path id="Path_2711" data-name="Path 2711" d="M348.648,411.94V376.277l-46.422-26.8-46.422,26.8V411.94h-1.641V375.33l48.063-27.749,48.063,27.749v36.61Z" transform="translate(-162.827 139.06)" fill="#fff"/>
        <path id="Path_2712" data-name="Path 2712" d="M406.6,411.94V376.277l-46.422-26.8-46.422,26.8V411.94h-1.641V375.33l48.063-27.749,48.063,27.749v36.61Z" transform="translate(-126.694 139.06)" fill="#fff"/>
        <path id="Path_2713" data-name="Path 2713" d="M371.7,376.277V411.94h-1.641V375.33l48.062-27.749,22.446,12.959v1.894L418.12,349.476Z" transform="translate(-90.451 139.06)" fill="#fff"/>
        <path id="Path_2714" data-name="Path 2714" d="M331.2,369.163l-48.063,27.748v55.5L331.2,480.158l48.063-27.748v-55.5Zm-46.421,28.7,46.421-26.8,46.423,26.8v53.6l-46.423,26.8-46.421-26.8Z" transform="translate(-144.761 35.653)" fill="#fff"/>
        <path id="Path_2715" data-name="Path 2715" d="M389.146,369.163l-48.061,27.748v55.5l48.061,27.748,48.061-27.748v-55.5Zm-46.421,28.7,46.421-26.8,46.421,26.8v53.6l-46.421,26.8-46.421-26.8Z" transform="translate(-108.719 35.653)" fill="#fff"/>
        <path id="Path_2716" data-name="Path 2716" d="M422.3,379.837l-21.626,12.485v53.6L422.3,458.412v1.895l-23.266-13.433v-55.5L422.3,377.943Z" transform="translate(-72.183 41.189)" fill="#fff"/>
        <path id="Path_2717" data-name="Path 2717" d="M360.174,419.347,312.111,447.1v55.5l48.063,27.748,48.063-27.748V447.1Zm-46.423,28.7,46.423-26.8,46.421,26.8v53.6l-46.421,26.8-46.423-26.8Z" transform="translate(-126.694 -96.218)" fill="#fff"/>
        <path id="Path_2718" data-name="Path 2718" d="M440.565,434.2,418.12,421.241l-46.42,26.8v53.6l46.42,26.8,22.446-12.959v1.894L418.12,530.342l-48.062-27.749V447.1l48.062-27.749,22.446,12.959Z" transform="translate(-90.451 -96.217)" fill="#fff"/>
        <path id="Path_2719" data-name="Path 2719" d="M422.3,480.2,400.672,492.69v53.6L422.3,558.779v1.895l-23.266-13.433v-55.5L422.3,478.31Z" transform="translate(-72.183 -222.592)" fill="#fff"/>
        <path id="Path_2720" data-name="Path 2720" d="M389.146,569.9l-48.061,27.748v55.5l48.061,27.748,48.061-27.748v-55.5Zm-46.421,28.7,46.421-26.8,46.421,26.8v53.6L389.146,679l-46.421-26.8Z" transform="translate(-108.719 -491.86)" fill="#fff"/>
        <path id="Path_2721" data-name="Path 2721" d="M356.893,620.082l-43.142,24.908v53.6l46.422,26.8,46.422-26.8v-53.6l-43.141-24.908h3.281l41.5,23.96v55.5l-48.063,27.749L312.111,699.54v-55.5l41.5-23.96Z" transform="translate(-126.694 -620.082)" fill="#fff"/>
        <path id="Path_2722" data-name="Path 2722" d="M418.12,725.395l22.446-12.959v1.894L418.12,727.289,370.058,699.54v-55.5l41.5-23.96h3.281L371.7,644.989v53.6Z" transform="translate(-90.451 -620.082)" fill="#fff"/>
        <path id="Path_2723" data-name="Path 2723" d="M420.711,690.111l-19.165-11.065h3.281l15.885,9.171Z" transform="translate(-70.597 -679.045)" fill="#fff"/>
        <path id="Path_2724" data-name="Path 2724" d="M288.933,670.265l40.681,23.487L370.3,670.265h3.282l-43.962,25.381-43.963-25.381Z" transform="translate(-143.173 -670.265)" fill="#fff"/>
        <path id="Path_2725" data-name="Path 2725" d="M346.881,670.265l40.681,23.487,40.68-23.487h3.281l-43.961,25.381L343.6,670.265Z" transform="translate(-107.134 -670.265)" fill="#fff"/>
        <path id="Path_2726" data-name="Path 2726" d="M420.712,690.11l-19.166-11.065h3.281l15.885,9.171Z" transform="translate(-70.597 -679.045)" fill="#fff"/>
        <path id="Path_2727" data-name="Path 2727" d="M209.693,408.723a5,5,0,1,1,5-5A5,5,0,0,1,209.693,408.723Z" transform="translate(-193.627 58.885)" fill="#fff"/>
        <path id="Path_2728" data-name="Path 2728" d="M208.97,425.543a3.129,3.129,0,1,1-3.129,3.129A3.13,3.13,0,0,1,208.97,425.543Z" transform="translate(-192.903 -7.796)" fill="#fff"/>
        <path id="Path_2729" data-name="Path 2729" d="M231.079,438.571a2.815,2.815,0,1,1-2.814,2.816A2.815,2.815,0,0,1,231.079,438.571Z" transform="translate(-178.764 -41.419)" fill="#fff"/>
        <ellipse id="Ellipse_62" data-name="Ellipse 62" cx="1.45" cy="1.45" rx="1.45" ry="1.45" transform="translate(50.865 482.088)" fill="#fff"/>
        <path id="Path_2730" data-name="Path 2730" d="M253.331,400.033a2.867,2.867,0,1,1-2.866,2.868A2.867,2.867,0,0,1,253.331,400.033Z" transform="translate(-165.038 59.709)" fill="#fff"/>
        <path id="Path_2731" data-name="Path 2731" d="M254.168,434.444a5.035,5.035,0,1,1,5.035-5.035A5.035,5.035,0,0,1,254.168,434.444Z" transform="translate(-165.873 -8.535)" fill="#fff"/>
        <path id="Path_2732" data-name="Path 2732" d="M275.275,387.655a2.122,2.122,0,1,1-2.123,2.123A2.122,2.122,0,0,1,275.275,387.655Z" transform="translate(-150.848 93.76)" fill="#fff"/>
        <path id="Path_2733" data-name="Path 2733" d="M298.2,399.392a3.912,3.912,0,1,1-3.912,3.912A3.911,3.911,0,0,1,298.2,399.392Z" transform="translate(-137.636 59.306)" fill="#fff"/>
        <circle id="Ellipse_63" data-name="Ellipse 63" cx="4.669" cy="4.669" r="4.669" transform="translate(155.894 416.206)" fill="#fff"/>
        <path id="Path_2734" data-name="Path 2734" d="M319.86,387.46a2.439,2.439,0,1,1-2.439,2.439A2.44,2.44,0,0,1,319.86,387.46Z" transform="translate(-123.163 93.639)" fill="#fff"/>
        <path id="Path_2735" data-name="Path 2735" d="M342.233,400.07a2.807,2.807,0,1,1-2.806,2.808A2.806,2.806,0,0,1,342.233,400.07Z" transform="translate(-109.402 59.732)" fill="#fff"/>
        <ellipse id="Ellipse_64" data-name="Ellipse 64" cx="2.001" cy="2.001" rx="2.001" ry="2.001" transform="translate(230.831 418.875)" fill="#fff"/>
        <path id="Path_2736" data-name="Path 2736" d="M364.11,387.8a1.887,1.887,0,1,1-1.887,1.887A1.885,1.885,0,0,1,364.11,387.8Z" transform="translate(-95.142 93.852)" fill="#fff"/>
        <path id="Path_2737" data-name="Path 2737" d="M386.76,399.969a2.972,2.972,0,1,1-2.971,2.973A2.972,2.972,0,0,1,386.76,399.969Z" transform="translate(-81.793 59.669)" fill="#fff"/>
        <ellipse id="Ellipse_65" data-name="Ellipse 65" cx="3.374" cy="3.374" rx="3.374" ry="3.374" transform="translate(301.592 417.501)" fill="#fff"/>
        <path id="Path_2738" data-name="Path 2738" d="M408.938,387.218a2.834,2.834,0,1,1-2.834,2.834A2.835,2.835,0,0,1,408.938,387.218Z" transform="translate(-67.723 93.486)" fill="#fff"/>
        <path id="Path_2739" data-name="Path 2739" d="M231.453,463.649a3.781,3.781,0,1,1-3.781,3.781A3.781,3.781,0,0,1,231.453,463.649Z" transform="translate(-179.138 -109.279)" fill="#fff"/>
        <path id="Path_2740" data-name="Path 2740" d="M275.2,442.978a1.933,1.933,0,1,1,1.932-1.932A1.933,1.933,0,0,1,275.2,442.978Z" transform="translate(-150.775 -41.077)" fill="#fff"/>
        <path id="Path_2741" data-name="Path 2741" d="M275.841,463.768a3.587,3.587,0,1,1-3.587,3.587A3.587,3.587,0,0,1,275.841,463.768Z" transform="translate(-151.413 -109.204)" fill="#fff"/>
        <circle id="Ellipse_66" data-name="Ellipse 66" cx="2.264" cy="2.264" r="2.264" transform="translate(158.298 334.979)" fill="#fff"/>
        <path id="Path_2742" data-name="Path 2742" d="M320.966,447.643a5.3,5.3,0,1,1,5.3-5.3A5.3,5.3,0,0,1,320.966,447.643Z" transform="translate(-124.27 -42.379)" fill="#fff"/>
        <path id="Path_2743" data-name="Path 2743" d="M364.9,437.888a3.929,3.929,0,1,1-3.93,3.93A3.929,3.929,0,0,1,364.9,437.888Z" transform="translate(-95.935 -41.85)" fill="#fff"/>
        <path id="Path_2744" data-name="Path 2744" d="M387.125,476.4a3.916,3.916,0,1,1-3.915,3.916A3.917,3.917,0,0,1,387.125,476.4Z" transform="translate(-82.158 -143.075)" fill="#fff"/>
        <path id="Path_2745" data-name="Path 2745" d="M365.166,463.137a4.616,4.616,0,1,1-4.618,4.616A4.616,4.616,0,0,1,365.166,463.137Z" transform="translate(-96.202 -109.602)" fill="#fff"/>
        <path id="Path_2746" data-name="Path 2746" d="M409.466,437.722a4.2,4.2,0,1,1-4.2,4.2A4.2,4.2,0,0,1,409.466,437.722Z" transform="translate(-68.251 -41.953)" fill="#fff"/>
        <path id="Path_2747" data-name="Path 2747" d="M256.4,479.969a3.011,3.011,0,1,1-3.012-3.012A3.01,3.01,0,0,1,256.4,479.969Z" transform="translate(-165.093 -142.725)" fill="#fff"/>
        <circle id="Ellipse_67" data-name="Ellipse 67" cx="2.428" cy="2.428" r="2.428" transform="translate(194.269 355.724)" fill="#fff"/>
        <path id="Path_2748" data-name="Path 2748" d="M342.154,477.208a2.6,2.6,0,1,1-2.6,2.6A2.6,2.6,0,0,1,342.154,477.208Z" transform="translate(-109.323 -142.567)" fill="#fff"/>
        <circle id="Ellipse_68" data-name="Ellipse 68" cx="2.577" cy="2.577" r="2.577" transform="translate(338.639 271.942)" fill="#fff"/>
        <path id="Path_2749" data-name="Path 2749" d="M386.908,509.125a3.354,3.354,0,1,1,3.354-3.354A3.354,3.354,0,0,1,386.908,509.125Z" transform="translate(-81.942 -210.345)" fill="#fff"/>
        <ellipse id="Ellipse_69" data-name="Ellipse 69" cx="3.208" cy="3.208" rx="3.208" ry="3.208" transform="translate(338.007 354.943)" fill="#fff"/>
        <path id="Path_2750" data-name="Path 2750" d="M298.183,509.846a3.874,3.874,0,1,1,3.876-3.874A3.875,3.875,0,0,1,298.183,509.846Z" transform="translate(-137.621 -210.546)" fill="#fff"/>
        <path id="Path_2751" data-name="Path 2751" d="M316.449,518.866a4.023,4.023,0,1,1,4.024,4.023A4.024,4.024,0,0,1,316.449,518.866Z" transform="translate(-123.776 -244.347)" fill="#fff"/>
        <circle id="Ellipse_70" data-name="Ellipse 70" cx="2.431" cy="2.431" r="2.431" transform="translate(230.4 209.362)" fill="#fff"/>
        <ellipse id="Ellipse_71" data-name="Ellipse 71" cx="3.166" cy="3.166" rx="3.166" ry="3.166" transform="translate(193.53 229.536)" fill="#fff"/>
        <circle id="Ellipse_72" data-name="Ellipse 72" cx="3.378" cy="3.378" r="3.378" transform="translate(229.452 292.048)" fill="#fff"/>
        <circle id="Ellipse_73" data-name="Ellipse 73" cx="4.799" cy="4.799" r="4.799" transform="translate(264.163 227.904)" fill="#fff"/>
        <path id="Path_2752" data-name="Path 2752" d="M386.659,554.153a2.711,2.711,0,1,1-2.71,2.712A2.711,2.711,0,0,1,386.659,554.153Z" transform="translate(-81.692 -345.07)" fill="#fff"/>
        <path id="Path_2753" data-name="Path 2753" d="M365.216,514.4a4.748,4.748,0,1,1-4.748,4.748A4.747,4.747,0,0,1,365.216,514.4Z" transform="translate(-96.253 -244.626)" fill="#fff"/>
        <circle id="Ellipse_74" data-name="Ellipse 74" cx="2.154" cy="2.154" r="2.154" transform="translate(339.062 230.548)" fill="#fff"/>
        <path id="Path_2754" data-name="Path 2754" d="M342.013,635.927a2.235,2.235,0,1,1,2.235-2.235A2.236,2.236,0,0,1,342.013,635.927Z" transform="translate(-109.181 -547.266)" fill="#fff"/>
        <path id="Path_2755" data-name="Path 2755" d="M342.158,579.885a2.61,2.61,0,1,1-2.611,2.61A2.611,2.611,0,0,1,342.158,579.885Z" transform="translate(-109.326 -412.518)" fill="#fff"/>
        <path id="Path_2756" data-name="Path 2756" d="M365.351,601.389a5.1,5.1,0,1,1,5.1-5.1A5.1,5.1,0,0,1,365.351,601.389Z" transform="translate(-96.389 -447.221)" fill="#fff"/>
        <path id="Path_2757" data-name="Path 2757" d="M386.683,579.786a2.772,2.772,0,1,1-2.772,2.772A2.772,2.772,0,0,1,386.683,579.786Z" transform="translate(-81.716 -412.58)" fill="#fff"/>
        <path id="Path_2758" data-name="Path 2758" d="M409.447,591.775a4.151,4.151,0,1,1-4.151,4.151A4.152,4.152,0,0,1,409.447,591.775Z" transform="translate(-68.233 -446.856)" fill="#fff"/>
        <path id="Path_2759" data-name="Path 2759" d="M409.983,627.671a5.537,5.537,0,1,1,5.537-5.537A5.536,5.536,0,0,1,409.983,627.671Z" transform="translate(-68.768 -514.879)" fill="#fff"/>
        <path id="Path_2760" data-name="Path 2760" d="M345.32,659.662a3.008,3.008,0,1,1-3.008-3.008A3.008,3.008,0,0,1,345.32,659.662Z" transform="translate(-109.481 -615.093)" fill="#fff"/>
        <path id="Path_2761" data-name="Path 2761" d="M387.127,630.423a3.92,3.92,0,1,1-3.92,3.92A3.919,3.919,0,0,1,387.127,630.423Z" transform="translate(-82.16 -547.917)" fill="#fff"/>
        <path id="Path_2762" data-name="Path 2762" d="M387.125,663.925a3.914,3.914,0,1,1,3.915-3.915A3.915,3.915,0,0,1,387.125,663.925Z" transform="translate(-82.158 -615.442)" fill="#fff"/>
        <path id="Path_2763" data-name="Path 2763" d="M320.121,669.423a3.114,3.114,0,1,1-3.114,3.114A3.115,3.115,0,0,1,320.121,669.423Z" transform="translate(-123.424 -648.897)" fill="#fff"/>
        <path id="Path_2764" data-name="Path 2764" d="M364.712,669.22a3.445,3.445,0,1,1-3.445,3.445A3.445,3.445,0,0,1,364.712,669.22Z" transform="translate(-95.747 -649.025)" fill="#fff"/>
        <path id="Path_2765" data-name="Path 2765" d="M289.105,417.744V373.458l-44.051-25.433L201,373.458v44.286h-.384V373.236l44.339-25.6.1-.055,44.339,25.6.1.056v44.508Z" transform="translate(-196.196 133.255)" fill="#fff"/>
        <path id="Path_2766" data-name="Path 2766" d="M343.374,417.744V373.458l-44.051-25.433-44.051,25.433v44.286h-.384V373.236l44.339-25.6.1-.055,44.34,25.6.1.056v44.508Z" transform="translate(-162.365 133.255)" fill="#fff"/>
        <path id="Path_2767" data-name="Path 2767" d="M397.643,417.744V373.458l-44.051-25.433L309.54,373.458v44.286h-.384V373.236l44.34-25.6.1-.055,44.34,25.6.1.056v44.508Z" transform="translate(-128.515 133.255)" fill="#fff"/>
        <path id="Path_2768" data-name="Path 2768" d="M363.809,373.458v44.286h-.384V373.236l44.338-25.6.1-.055,28.009,16.171v.444l-28.009-16.171Z" transform="translate(-94.633 133.255)" fill="#fff"/>
        <path id="Path_2769" data-name="Path 2769" d="M326.457,374.674l-.1.055-44.339,25.6v51.31l.1.055,44.339,25.6.1-.055,44.339-25.6v-51.31l-.1-.057ZM282.405,400.55l44.052-25.433,44.052,25.433v50.866l-44.052,25.431-44.052-25.431Z" transform="translate(-145.44 29.532)" fill="#fff"/>
        <path id="Path_2770" data-name="Path 2770" d="M380.726,374.674l-.1.055-44.339,25.6v51.31l.1.055,44.339,25.6.1-.055,44.337-25.6v-51.31l-.1-.057ZM336.674,400.55l44.052-25.433,44.05,25.433v50.866l-44.05,25.431-44.052-25.431Z" transform="translate(-111.742 29.532)" fill="#fff"/>
        <path id="Path_2771" data-name="Path 2771" d="M418.759,380.867l-27.816,16.06v50.866l27.816,16.06v.444l-28.1-16.226-.1-.056V396.7l28.2-16.281Z" transform="translate(-77.525 33.156)" fill="#fff"/>
        <path id="Path_2772" data-name="Path 2772" d="M353.591,421.672l-.094.057-44.341,25.6v51.311l.1.055,44.339,25.6.1-.055,44.341-25.6V447.327l-.1-.055Zm-44.05,25.878,44.05-25.433,44.052,25.433v50.866l-44.052,25.431-44.05-25.431Z" transform="translate(-128.515 -93.957)" fill="#fff"/>
        <path id="Path_2773" data-name="Path 2773" d="M435.868,438.287l-28.009-16.17-44.05,25.433v50.866l44.05,25.432,28.009-16.17v.444l-27.912,16.115-.1.055-44.338-25.6-.1-.055v-51.31l44.338-25.6.1-.055,28.009,16.171Z" transform="translate(-94.633 -93.957)" fill="#fff"/>
        <path id="Path_2774" data-name="Path 2774" d="M380.726,468.67l-.1.055-44.339,25.6v51.311l.1.055,44.339,25.6.1-.055,44.337-25.6V494.325l-.1-.055Zm-44.052,25.878,44.052-25.433,44.05,25.433v50.866l-44.05,25.431-44.052-25.431Z" transform="translate(-111.742 -217.497)" fill="#fff"/>
        <path id="Path_2775" data-name="Path 2775" d="M418.759,474.863l-27.816,16.06v50.866l27.816,16.06v.444l-28.1-16.226-.1-.055V490.7l28.2-16.282Z" transform="translate(-77.525 -213.871)" fill="#fff"/>
        <path id="Path_2776" data-name="Path 2776" d="M353.591,609.664l-.094.055-44.341,25.6V686.63l.1.055,44.339,25.6.1-.057,44.341-25.6V635.319l-.1-.056Zm-44.05,25.877,44.05-25.431,44.052,25.431v50.866l-44.052,25.433-44.05-25.433Z" transform="translate(-128.515 -588.091)" fill="#fff"/>
        <path id="Path_2777" data-name="Path 2777" d="M435.868,626.279l-28.009-16.17-44.05,25.433v50.866l44.05,25.432,28.009-16.17v.444l-27.912,16.115-.1.056-44.338-25.6-.1-.056v-51.31l44.338-25.6.1-.056,28.009,16.171Z" transform="translate(-94.633 -588.091)" fill="#fff"/>
        <path id="Path_2778" data-name="Path 2778" d="M336.675,656.662v14.755l44.051,25.433,44.05-25.433V656.662h.384v14.977l-44.338,25.6-.1.056-44.339-25.6-.1-.056V656.662Z" transform="translate(-111.742 -649.733)" fill="#fff"/>
        <path id="Path_2779" data-name="Path 2779" d="M418.759,693.669l-28.1-16.226-.1-.056V662.411h.384v14.755l27.816,16.06Z" transform="translate(-77.525 -655.481)" fill="#fff"/>
        <path id="Path_2780" data-name="Path 2780" d="M416.29,434.671V382.606l-56.66-32.712-56.66,32.712v52.065h-2V381.45l58.663-33.868,58.663,33.868v53.221Z" transform="translate(-133.708 116.329)" fill="#fff"/>
        <path id="Path_2781" data-name="Path 2781" d="M373.7,382.606v52.065h-2V381.45l58.66-33.868.3.173v2.312l-.3-.173Z" transform="translate(-89.42 116.329)" fill="#fff"/>
        <path id="Path_2782" data-name="Path 2782" d="M408.357,468.709l-1.3-.751V400.22l1.3-.751Z" transform="translate(-67.123 -2.221)" fill="#fff"/>
        <path id="Path_2783" data-name="Path 2783" d="M452.951,603.672l-57.959,33.463-58.662-33.868V535.529l58.662-33.868,57.959,33.462Zm-57.959-99.7-56.659,32.712v65.426l56.659,32.712,56.659-32.712V536.685Z" transform="translate(-111.717 -337.048)" fill="#fff"/>
        <path id="Path_2784" data-name="Path 2784" d="M359.63,562.912l-58.663,33.869v67.737l58.663,33.869,58.663-33.869V596.781Zm-56.661,35.025,56.661-32.713,56.659,32.713v65.425L359.63,696.076l-56.661-32.713Z" transform="translate(-133.708 -497.964)" fill="#fff"/>
        <path id="Path_2785" data-name="Path 2785" d="M430.654,565.4l-.3-.173L373.7,597.937v65.426l56.658,32.712.3-.173v2.312l-.3.173-58.66-33.868V596.781l58.66-33.868.3.173Z" transform="translate(-89.42 -497.963)" fill="#fff"/>
        <path id="Path_2786" data-name="Path 2786" d="M452.952,624.164v60.159l-57.959,33.463-58.662-33.868V624.164h2v58.6l56.66,32.712,56.658-32.712v-58.6Z" transform="translate(-111.717 -617.234)" fill="#fff"/>
        <path id="Path_2787" data-name="Path 2787" d="M408.357,704.979l-1.3-.751V644.475h1.3Z" transform="translate(-67.123 -637.545)" fill="#fff"/>
        <ellipse id="Ellipse_75" data-name="Ellipse 75" cx="4.614" cy="4.614" rx="4.614" ry="4.614" transform="translate(0 501.989)" fill="#fff"/>
        <path id="Path_2788" data-name="Path 2788" d="M256.7,372.126a4.377,4.377,0,1,1-4.378,4.378A4.378,4.378,0,0,1,256.7,372.126Z" transform="translate(-163.88 130.099)" fill="#fff"/>
        <circle id="Ellipse_76" data-name="Ellipse 76" cx="2.763" cy="2.763" r="2.763" transform="translate(134.156 478.296)" fill="#fff"/>
        <path id="Path_2789" data-name="Path 2789" d="M392.525,387.545a4.779,4.779,0,1,1-4.779,4.779A4.779,4.779,0,0,1,392.525,387.545Z" transform="translate(-79.298 88.735)" fill="#fff"/>
        <ellipse id="Ellipse_77" data-name="Ellipse 77" cx="5.635" cy="5.635" rx="5.635" ry="5.635" transform="translate(263.591 500.968)" fill="#fff"/>
        <path id="Path_2790" data-name="Path 2790" d="M232.967,391.9a3.675,3.675,0,1,1-3.675-3.675A3.675,3.675,0,0,1,232.967,391.9Z" transform="translate(-180.434 89.162)" fill="#fff"/>
        <circle id="Ellipse_78" data-name="Ellipse 78" cx="2.963" cy="2.963" r="2.963" transform="translate(178.06 503.64)" fill="#fff"/>
        <ellipse id="Ellipse_79" data-name="Ellipse 79" cx="3.175" cy="3.175" rx="3.175" ry="3.175" transform="translate(221.952 477.884)" fill="#fff"/>
        <path id="Path_2791" data-name="Path 2791" d="M392.26,427.486a4.094,4.094,0,1,1,4.094-4.094A4.094,4.094,0,0,1,392.26,427.486Z" transform="translate(-79.034 6.694)" fill="#fff"/>
        <ellipse id="Ellipse_80" data-name="Ellipse 80" cx="4.729" cy="4.729" rx="4.729" ry="4.729" transform="translate(132.192 425.355)" fill="#fff"/>
        <path id="Path_2792" data-name="Path 2792" d="M306.262,439.374a4.911,4.911,0,1,1,4.911,4.909A4.91,4.91,0,0,1,306.262,439.374Z" transform="translate(-130.15 -34.809)" fill="#fff"/>
        <circle id="Ellipse_81" data-name="Ellipse 81" cx="2.968" cy="2.968" r="2.968" transform="translate(222.159 325.04)" fill="#fff"/>
        <path id="Path_2793" data-name="Path 2793" d="M310.768,474.166a3.865,3.865,0,1,1,3.864-3.864A3.864,3.864,0,0,1,310.768,474.166Z" transform="translate(-129.745 -116.774)" fill="#fff"/>
        <circle id="Ellipse_82" data-name="Ellipse 82" cx="4.124" cy="4.124" r="4.124" transform="translate(221.002 425.961)" fill="#fff"/>
        <ellipse id="Ellipse_83" data-name="Ellipse 83" cx="5.857" cy="5.857" rx="5.857" ry="5.857" transform="translate(263.368 347.669)" fill="#fff"/>
        <path id="Path_2794" data-name="Path 2794" d="M391.956,482.443a3.309,3.309,0,1,1-3.308,3.31A3.31,3.31,0,0,1,391.956,482.443Z" transform="translate(-78.73 -157.744)" fill="#fff"/>
        <path id="Path_2795" data-name="Path 2795" d="M365.783,433.92a5.8,5.8,0,1,1-5.795,5.8A5.8,5.8,0,0,1,365.783,433.92Z" transform="translate(-96.559 -35.151)" fill="#fff"/>
        <path id="Path_2796" data-name="Path 2796" d="M337.463,582.252a2.729,2.729,0,1,1,2.73-2.729A2.728,2.728,0,0,1,337.463,582.252Z" transform="translate(-112.336 -404.631)" fill="#fff"/>
        <ellipse id="Ellipse_84" data-name="Ellipse 84" cx="3.186" cy="3.186" rx="3.186" ry="3.186" transform="translate(221.941 273.784)" fill="#fff"/>
        <ellipse id="Ellipse_85" data-name="Ellipse 85" cx="6.221" cy="6.221" rx="6.221" ry="6.221" transform="translate(263.004 245.23)" fill="#fff"/>
        <path id="Path_2797" data-name="Path 2797" d="M391.985,513.73a3.383,3.383,0,1,1-3.383,3.382A3.383,3.383,0,0,1,391.985,513.73Z" transform="translate(-78.759 -240.143)" fill="#fff"/>
        <path id="Path_2798" data-name="Path 2798" d="M341.5,611.221a3.672,3.672,0,1,1-3.672-3.672A3.671,3.671,0,0,1,341.5,611.221Z" transform="translate(-112.702 -487.367)" fill="#fff"/>
        <path id="Path_2799" data-name="Path 2799" d="M392.527,575.535a4.784,4.784,0,1,1-4.784,4.784A4.785,4.785,0,0,1,392.527,575.535Z" transform="translate(-79.3 -405.426)" fill="#fff"/>
        <path id="Path_2800" data-name="Path 2800" d="M392.524,616.427a4.778,4.778,0,1,1,4.777-4.779A4.778,4.778,0,0,1,392.524,616.427Z" transform="translate(-79.298 -487.793)" fill="#fff"/>
        <path id="Path_2801" data-name="Path 2801" d="M310.744,623.136a3.8,3.8,0,1,1-3.8,3.8A3.8,3.8,0,0,1,310.744,623.136Z" transform="translate(-129.72 -528.51)" fill="#fff"/>
        <circle id="Ellipse_86" data-name="Ellipse 86" cx="4.205" cy="4.205" r="4.205" transform="translate(265.023 94.222)" fill="#fff"/>
        <path id="Path_2802" data-name="Path 2802" d="M310.92,662.7a4.256,4.256,0,1,1,4.256-4.256A4.255,4.255,0,0,1,310.92,662.7Z" transform="translate(-129.896 -611.106)" fill="#fff"/>
        <path id="Path_2803" data-name="Path 2803" d="M334.953,673.381a2.372,2.372,0,1,1,2.372,2.374A2.371,2.371,0,0,1,334.953,673.381Z" transform="translate(-112.198 -651.586)" fill="#fff"/>
        <path id="Path_2804" data-name="Path 2804" d="M365.251,662.929a4.421,4.421,0,1,1,4.422-4.422A4.421,4.421,0,0,1,365.251,662.929Z" transform="translate(-96.024 -611.169)" fill="#fff"/>
        <path id="Path_2805" data-name="Path 2805" d="M392.7,679.723a5.234,5.234,0,1,1,5.234-5.234A5.234,5.234,0,0,1,392.7,679.723Z" transform="translate(-79.474 -652.694)" fill="#fff"/>
      </g>
      <g id="Group_10550" data-name="Group 10550" transform="translate(0 5004)" opacity="0.15">
        <path id="Path_2690-2" data-name="Path 2690" d="M244.069,472.922l.078-.046L280.476,451.9v-42.04l-.078-.044-36.328-20.975-.078.046-36.328,20.973V451.9l.078.046Zm36.092-21.2-36.092,20.838-36.092-20.838V410.046l36.092-20.836,36.092,20.836Z" transform="translate(53.73 -321.565)" fill="#fff"/>
        <path id="Path_2691-2" data-name="Path 2691" d="M288.532,472.922l.078-.046L324.939,451.9v-42.04l-.078-.044-36.328-20.975-.078.046-36.328,20.973V451.9l.078.046Zm36.092-21.2-36.092,20.838-36.092-20.838V410.046l36.092-20.836,36.092,20.836Z" transform="translate(-62.885 -321.565)" fill="#fff"/>
        <path id="Path_2692-2" data-name="Path 2692" d="M333,472.922l.078-.046L369.4,451.9v-42.04l-.078-.044L333,388.844l-.078.046-36.328,20.973V451.9l.078.046Zm36.092-21.2L333,472.559,296.9,451.721V410.046L333,389.209l36.092,20.836Z" transform="translate(-179.561 -321.565)" fill="#fff"/>
        <path id="Path_2693-2" data-name="Path 2693" d="M377.457,472.922l.078-.046L413.863,451.9v-42.04l-.078-.044-36.328-20.975-.078.046-36.327,20.973V451.9l.078.046Zm36.092-21.2-36.092,20.838-36.09-20.838V410.046l36.09-20.836,36.092,20.836Z" transform="translate(-296.061 -321.565)" fill="#fff"/>
        <path id="Path_2694-2" data-name="Path 2694" d="M385.514,467.42l8.9,5.138,36.092-20.837V410.046l-36.092-20.837-8.9,5.138v-.364l8.821-5.093.079-.046,36.328,20.974.079.045V451.9l-36.328,20.974-.079.046-8.9-5.138Z" transform="translate(-385.514 -321.564)" fill="#fff"/>
        <path id="Path_2695-2" data-name="Path 2695" d="M266.3,511.428l.078-.046,36.327-20.973v-42.04l-.078-.044L266.3,427.35l-.08.046-36.327,20.973v42.04l.078.046Zm36.09-21.2L266.3,511.065l-36.093-20.838V448.552L266.3,427.715l36.09,20.837Z" transform="translate(-4.75 -297.432)" fill="#fff"/>
        <path id="Path_2696-2" data-name="Path 2696" d="M310.766,511.428l.078-.046,36.327-20.973v-42.04l-.078-.044L310.766,427.35l-.08.046-36.328,20.973v42.04l.08.046Zm36.092-21.2-36.092,20.838-36.092-20.838V448.552l36.092-20.837,36.092,20.837Z" transform="translate(-121.224 -297.432)" fill="#fff"/>
        <path id="Path_2697-2" data-name="Path 2697" d="M355.226,511.428l.078-.046,36.328-20.973v-42.04l-.08-.044L355.226,427.35l-.08.046L318.82,448.369v42.04l.078.046Zm36.09-21.2-36.09,20.838-36.092-20.838V448.552l36.092-20.837,36.09,20.837Z" transform="translate(-237.899 -297.432)" fill="#fff"/>
        <path id="Path_2698-2" data-name="Path 2698" d="M399.689,511.428l.08-.046L436.1,490.409v-42.04l-.08-.044L399.689,427.35l-.078.046-36.328,20.973v42.04l.08.046Zm36.092-21.2-36.092,20.838L363.6,490.226V448.552l36.092-20.837,36.092,20.837Z" transform="translate(-354.541 -297.432)" fill="#fff"/>
        <path id="Path_2699-2" data-name="Path 2699" d="M407.746,489.168l8.742-5.047V442.446l-8.742-5.047v-.364l8.978,5.184.079.045V484.3l-9.057,5.229Z" transform="translate(-407.745 -291.333)" fill="#fff"/>
        <path id="Path_2700-2" data-name="Path 2700" d="M333,549.934l.078-.046L369.4,528.915v-42.04l-.078-.046L333,465.856l-.078.046-36.328,20.974v42.04l.078.046Zm36.092-21.2L333,549.569,296.9,528.733V487.058L333,466.221l36.092,20.837Z" transform="translate(-179.561 -273.224)" fill="#fff"/>
        <path id="Path_2701-2" data-name="Path 2701" d="M377.457,549.934l.078-.046,36.328-20.974v-42.04l-.078-.046-36.328-20.974-.078.046-36.327,20.974v42.04l.078.046Zm36.092-21.2-36.092,20.836-36.09-20.836V487.058l36.09-20.837,36.092,20.837Z" transform="translate(-296.061 -273.224)" fill="#fff"/>
        <path id="Path_2702-2" data-name="Path 2702" d="M385.514,544.432l8.9,5.138,36.092-20.837V487.057L394.414,466.22l-8.9,5.138v-.364l8.821-5.093.079-.045,36.328,20.974.079.046v42.039l-36.328,20.974-.079.046-8.9-5.138Z" transform="translate(-385.514 -273.223)" fill="#fff"/>
        <path id="Path_2703-2" data-name="Path 2703" d="M355.226,588.44l.078-.046,36.328-20.974v-42.04l-.08-.046-36.327-20.973-.08.046L318.82,525.381v42.04l.078.046Zm36.09-21.2-36.09,20.836-36.092-20.836V525.564l36.092-20.836,36.09,20.836Z" transform="translate(-237.899 -249.015)" fill="#fff"/>
        <path id="Path_2704-2" data-name="Path 2704" d="M399.689,588.44l.08-.046L436.1,567.421v-42.04l-.08-.046-36.327-20.973-.078.046-36.328,20.973v42.04l.08.046Zm36.092-21.2-36.092,20.836L363.6,567.238V525.564l36.092-20.836,36.092,20.836Z" transform="translate(-354.541 -249.015)" fill="#fff"/>
        <path id="Path_2705-2" data-name="Path 2705" d="M407.746,566.18l8.742-5.047V519.458l-8.742-5.047v-.364l8.978,5.184.079.045v42.039l-9.057,5.229Z" transform="translate(-407.745 -242.907)" fill="#fff"/>
        <path id="Path_2706-2" data-name="Path 2706" d="M377.457,626.946l.078-.046,36.328-20.974v-42.04l-.078-.046-36.328-20.974-.078.046-36.327,20.974v42.04l.078.046Zm36.092-21.2-36.092,20.836-36.09-20.836V564.07l36.09-20.838,36.092,20.838Z" transform="translate(-296.061 -224.807)" fill="#fff"/>
        <path id="Path_2707-2" data-name="Path 2707" d="M385.514,621.443l8.9,5.138,36.092-20.837V564.069l-36.092-20.837-8.9,5.138v-.364l8.821-5.093.079-.045,36.328,20.974.079.045v42.039L394.492,626.9l-.079.045-8.9-5.138Z" transform="translate(-385.514 -224.806)" fill="#fff"/>
        <path id="Path_2708-2" data-name="Path 2708" d="M407.746,643.191l8.742-5.047V596.469l-8.742-5.047v-.364l8.978,5.184.079.046v42.039l-9.057,5.229Z" transform="translate(-407.745 -194.481)" fill="#fff"/>
        <path id="Path_2709-2" data-name="Path 2709" d="M391.319,703.137v-23.55L355.227,658.75l-36.091,20.837v23.55h-.315V679.405l36.328-20.974.079-.045,36.328,20.974.079.045v23.732Z" transform="translate(-237.9 -152.137)" fill="#fff"/>
        <path id="Path_2710-2" data-name="Path 2710" d="M435.78,703.137v-23.55L399.69,658.75,363.6,679.587v23.55h-.315V679.405l36.328-20.974.079-.045,36.327,20.974.079.045v23.732Z" transform="translate(-354.541 -152.137)" fill="#fff"/>
        <path id="Path_2711-2" data-name="Path 2711" d="M255.8,347.582v35.663l46.422,26.8,46.422-26.8V347.582h1.641v36.61L302.226,411.94l-48.063-27.749v-36.61Z" transform="translate(-91.511 -347.582)" fill="#fff"/>
        <path id="Path_2712-2" data-name="Path 2712" d="M313.752,347.582v35.663l46.422,26.8,46.422-26.8V347.582h1.641v36.61L360.174,411.94l-48.063-27.749v-36.61Z" transform="translate(-243.539 -347.582)" fill="#fff"/>
        <path id="Path_2713-2" data-name="Path 2713" d="M438.924,383.244V347.582h1.641v36.61L392.5,411.94l-22.446-12.959v-1.894L392.5,410.046Z" transform="translate(-370.058 -347.582)" fill="#fff"/>
        <path id="Path_2714-2" data-name="Path 2714" d="M331.2,480.158l48.063-27.748v-55.5L331.2,369.163l-48.063,27.748v55.5Zm46.421-28.7-46.421,26.8-46.423-26.8v-53.6l46.423-26.8,46.421,26.8Z" transform="translate(-167.525 -333.974)" fill="#fff"/>
        <path id="Path_2715-2" data-name="Path 2715" d="M389.146,480.158l48.061-27.748v-55.5l-48.061-27.748-48.061,27.748v55.5Zm46.421-28.7-46.421,26.8-46.421-26.8v-53.6l46.421-26.8,46.421,26.8Z" transform="translate(-319.459 -333.974)" fill="#fff"/>
        <path id="Path_2716-2" data-name="Path 2716" d="M399.031,458.412l21.626-12.485v-53.6l-21.626-12.485v-1.895L422.3,391.376v55.5l-23.266,13.433Z" transform="translate(-399.031 -328.438)" fill="#fff"/>
        <path id="Path_2717-2" data-name="Path 2717" d="M360.174,530.342l48.063-27.748V447.1l-48.063-27.748L312.111,447.1v55.5Zm46.423-28.7-46.423,26.8-46.421-26.8v-53.6l46.421-26.8,46.423,26.8Z" transform="translate(-243.54 -302.471)" fill="#fff"/>
        <path id="Path_2718-2" data-name="Path 2718" d="M370.058,515.489,392.5,528.448l46.42-26.8v-53.6l-46.42-26.8L370.058,434.2v-1.894L392.5,419.347,440.566,447.1v55.5L392.5,530.342l-22.446-12.959Z" transform="translate(-370.058 -302.471)" fill="#fff"/>
        <path id="Path_2719-2" data-name="Path 2719" d="M399.031,558.78l21.626-12.485v-53.6l-21.626-12.485V478.31L422.3,491.743v55.5l-23.266,13.433Z" transform="translate(-399.031 -265.393)" fill="#fff"/>
        <path id="Path_2720-2" data-name="Path 2720" d="M389.146,680.893l48.061-27.748v-55.5L389.146,569.9l-48.061,27.748v55.5Zm46.421-28.7L389.146,679l-46.421-26.8v-53.6l46.421-26.8,46.421,26.8Z" transform="translate(-319.459 -207.931)" fill="#fff"/>
        <path id="Path_2721-2" data-name="Path 2721" d="M363.454,727.289,406.6,702.381v-53.6l-46.422-26.8-46.422,26.8v53.6l43.141,24.908h-3.281l-41.5-23.96v-55.5l48.063-27.749,48.063,27.749v55.5l-41.5,23.96Z" transform="translate(-243.539 -176.289)" fill="#fff"/>
        <path id="Path_2722-2" data-name="Path 2722" d="M392.5,621.976l-22.446,12.959v-1.894L392.5,620.082l48.062,27.749v55.5l-41.5,23.96h-3.281l43.14-24.908v-53.6Z" transform="translate(-370.058 -176.289)" fill="#fff"/>
        <path id="Path_2723-2" data-name="Path 2723" d="M401.546,679.045l19.165,11.065h-3.281l-15.885-9.171Z" transform="translate(-401.546 -139.111)" fill="#fff"/>
        <path id="Path_2724-2" data-name="Path 2724" d="M370.3,695.647,329.614,672.16l-40.681,23.487h-3.282l43.962-25.381,43.963,25.381Z" transform="translate(-165.941 -144.647)" fill="#fff"/>
        <path id="Path_2725-2" data-name="Path 2725" d="M428.241,695.647,387.56,672.16l-40.68,23.487H343.6l43.961-25.381,43.963,25.381Z" transform="translate(-317.873 -144.647)" fill="#fff"/>
        <path id="Path_2726-2" data-name="Path 2726" d="M401.546,679.045l19.166,11.065H417.43l-15.885-9.171Z" transform="translate(-401.546 -139.111)" fill="#fff"/>
        <path id="Path_2727-2" data-name="Path 2727" d="M209.692,398.726a5,5,0,1,1-5,5A5,5,0,0,1,209.692,398.726Z" transform="translate(124.356 -315.334)" fill="#fff"/>
        <path id="Path_2728-2" data-name="Path 2728" d="M208.97,431.8a3.129,3.129,0,1,1,3.129-3.129A3.13,3.13,0,0,1,208.97,431.8Z" transform="translate(125.078 -298.547)" fill="#fff"/>
        <path id="Path_2729-2" data-name="Path 2729" d="M231.079,444.2a2.815,2.815,0,1,1,2.814-2.816A2.815,2.815,0,0,1,231.079,444.2Z" transform="translate(66.72 -290.353)" fill="#fff"/>
        <ellipse id="Ellipse_62-2" data-name="Ellipse 62" cx="1.45" cy="1.45" rx="1.45" ry="1.45" transform="translate(296.349 66.012)" fill="#fff"/>
        <path id="Path_2730-2" data-name="Path 2730" d="M253.332,405.768A2.867,2.867,0,1,1,256.2,402.9,2.867,2.867,0,0,1,253.332,405.768Z" transform="translate(8.49 -314.51)" fill="#fff"/>
        <path id="Path_2731-2" data-name="Path 2731" d="M254.17,424.374a5.035,5.035,0,1,1-5.035,5.035A5.035,5.035,0,0,1,254.17,424.374Z" transform="translate(7.648 -299.284)" fill="#fff"/>
        <path id="Path_2732-2" data-name="Path 2732" d="M275.273,391.9a2.122,2.122,0,1,1,2.123-2.123A2.122,2.122,0,0,1,275.273,391.9Z" transform="translate(-49.586 -322.314)" fill="#fff"/>
        <path id="Path_2733-2" data-name="Path 2733" d="M298.2,407.215a3.912,3.912,0,1,1,3.912-3.912A3.911,3.911,0,0,1,298.2,407.215Z" transform="translate(-108.645 -314.914)" fill="#fff"/>
        <ellipse id="Ellipse_63-2" data-name="Ellipse 63" cx="4.669" cy="4.669" rx="4.669" ry="4.669" transform="translate(184.883 125.457)" fill="#fff"/>
        <path id="Path_2734-2" data-name="Path 2734" d="M319.86,392.339A2.439,2.439,0,1,1,322.3,389.9,2.44,2.44,0,0,1,319.86,392.339Z" transform="translate(-166.443 -322.437)" fill="#fff"/>
        <path id="Path_2735-2" data-name="Path 2735" d="M342.233,405.684a2.807,2.807,0,1,1,2.806-2.808A2.806,2.806,0,0,1,342.233,405.684Z" transform="translate(-224.95 -314.486)" fill="#fff"/>
        <ellipse id="Ellipse_64-2" data-name="Ellipse 64" cx="2.001" cy="2.001" rx="2.001" ry="2.001" transform="translate(115.282 128.123)" fill="#fff"/>
        <path id="Path_2736-2" data-name="Path 2736" d="M364.108,391.572a1.887,1.887,0,1,1,1.887-1.887A1.885,1.885,0,0,1,364.108,391.572Z" transform="translate(-282.961 -322.223)" fill="#fff"/>
        <path id="Path_2737-2" data-name="Path 2737" d="M386.76,405.912a2.972,2.972,0,1,1,2.971-2.973A2.972,2.972,0,0,1,386.76,405.912Z" transform="translate(-341.612 -314.55)" fill="#fff"/>
        <ellipse id="Ellipse_65-2" data-name="Ellipse 65" cx="3.374" cy="3.374" rx="3.374" ry="3.374" transform="translate(41.774 126.751)" fill="#fff"/>
        <path id="Path_2738-2" data-name="Path 2738" d="M408.939,392.886a2.834,2.834,0,1,1,2.834-2.834A2.835,2.835,0,0,1,408.939,392.886Z" transform="translate(-400.04 -322.59)" fill="#fff"/>
        <path id="Path_2739-2" data-name="Path 2739" d="M231.453,471.211a3.781,3.781,0,1,1,3.781-3.781A3.781,3.781,0,0,1,231.453,471.211Z" transform="translate(66.347 -274.581)" fill="#fff"/>
        <path id="Path_2740-2" data-name="Path 2740" d="M275.2,439.112a1.933,1.933,0,1,1-1.932,1.932A1.933,1.933,0,0,1,275.2,439.112Z" transform="translate(-49.513 -290.013)" fill="#fff"/>
        <path id="Path_2741-2" data-name="Path 2741" d="M275.841,470.942a3.587,3.587,0,1,1,3.587-3.587A3.587,3.587,0,0,1,275.841,470.942Z" transform="translate(-50.155 -274.506)" fill="#fff"/>
        <ellipse id="Ellipse_66-2" data-name="Ellipse 66" cx="2.264" cy="2.264" rx="2.264" ry="2.264" transform="translate(187.289 211.493)" fill="#fff"/>
        <path id="Path_2742-2" data-name="Path 2742" d="M320.966,437.048a5.3,5.3,0,1,1-5.3,5.3A5.3,5.3,0,0,1,320.966,437.048Z" transform="translate(-167.547 -291.313)" fill="#fff"/>
        <path id="Path_2743-2" data-name="Path 2743" d="M364.9,445.746a3.929,3.929,0,1,1,3.93-3.93A3.929,3.929,0,0,1,364.9,445.746Z" transform="translate(-283.748 -290.784)" fill="#fff"/>
        <path id="Path_2744-2" data-name="Path 2744" d="M387.126,484.233a3.916,3.916,0,1,1,3.915-3.916A3.917,3.917,0,0,1,387.126,484.233Z" transform="translate(-341.978 -266.56)" fill="#fff"/>
        <path id="Path_2745-2" data-name="Path 2745" d="M365.164,472.369a4.616,4.616,0,1,1,4.618-4.616A4.616,4.616,0,0,1,365.164,472.369Z" transform="translate(-284.013 -274.904)" fill="#fff"/>
        <path id="Path_2746-2" data-name="Path 2746" d="M409.466,446.119a4.2,4.2,0,1,1,4.2-4.2A4.2,4.2,0,0,1,409.466,446.119Z" transform="translate(-400.566 -290.888)" fill="#fff"/>
        <path id="Path_2747-2" data-name="Path 2747" d="M250.376,479.967a3.011,3.011,0,1,1,3.012,3.012A3.01,3.01,0,0,1,250.376,479.967Z" transform="translate(8.434 -266.21)" fill="#fff"/>
        <ellipse id="Ellipse_67-2" data-name="Ellipse 67" cx="2.428" cy="2.428" rx="2.428" ry="2.428" transform="translate(150.99 190.421)" fill="#fff"/>
        <path id="Path_2748-2" data-name="Path 2748" d="M342.154,482.411a2.6,2.6,0,1,1,2.6-2.6A2.6,2.6,0,0,1,342.154,482.411Z" transform="translate(-224.87 -266.052)" fill="#fff"/>
        <ellipse id="Ellipse_68-2" data-name="Ellipse 68" cx="2.577" cy="2.577" rx="2.577" ry="2.577" transform="translate(6.323 273.905)" fill="#fff"/>
        <path id="Path_2749-2" data-name="Path 2749" d="M386.908,502.417a3.354,3.354,0,1,1-3.354,3.354A3.354,3.354,0,0,1,386.908,502.417Z" transform="translate(-341.76 -250.198)" fill="#fff"/>
        <ellipse id="Ellipse_69-2" data-name="Ellipse 69" cx="3.208" cy="3.208" rx="3.208" ry="3.208" transform="translate(5.691 189.641)" fill="#fff"/>
        <path id="Path_2750-2" data-name="Path 2750" d="M298.185,502.1a3.874,3.874,0,1,1-3.876,3.874A3.875,3.875,0,0,1,298.185,502.1Z" transform="translate(-108.632 -250.399)" fill="#fff"/>
        <path id="Path_2751-2" data-name="Path 2751" d="M324.5,518.864a4.023,4.023,0,1,1-4.024-4.023A4.024,4.024,0,0,1,324.5,518.864Z" transform="translate(-167.054 -242.383)" fill="#fff"/>
        <ellipse id="Ellipse_70-2" data-name="Ellipse 70" cx="2.431" cy="2.431" rx="2.431" ry="2.431" transform="translate(114.852 336.775)" fill="#fff"/>
        <ellipse id="Ellipse_71-2" data-name="Ellipse 71" cx="3.166" cy="3.166" rx="3.166" ry="3.166" transform="translate(150.252 315.131)" fill="#fff"/>
        <ellipse id="Ellipse_72-2" data-name="Ellipse 72" cx="3.378" cy="3.378" rx="3.378" ry="3.378" transform="translate(113.906 252.195)" fill="#fff"/>
        <ellipse id="Ellipse_73-2" data-name="Ellipse 73" cx="4.799" cy="4.799" rx="4.799" ry="4.799" transform="translate(76.354 313.499)" fill="#fff"/>
        <path id="Path_2752-2" data-name="Path 2752" d="M386.659,559.575a2.711,2.711,0,1,1,2.71-2.712A2.711,2.711,0,0,1,386.659,559.575Z" transform="translate(-341.511 -217.657)" fill="#fff"/>
        <path id="Path_2753-2" data-name="Path 2753" d="M365.216,523.893a4.748,4.748,0,1,1,4.748-4.748A4.747,4.747,0,0,1,365.216,523.893Z" transform="translate(-284.065 -242.664)" fill="#fff"/>
        <ellipse id="Ellipse_74-2" data-name="Ellipse 74" cx="2.154" cy="2.154" rx="2.154" ry="2.154" transform="translate(6.745 316.144)" fill="#fff"/>
        <path id="Path_2754-2" data-name="Path 2754" d="M342.012,631.456a2.235,2.235,0,1,1-2.235,2.235A2.236,2.236,0,0,1,342.012,631.456Z" transform="translate(-224.73 -169.117)" fill="#fff"/>
        <path id="Path_2755-2" data-name="Path 2755" d="M342.157,585.106a2.61,2.61,0,1,1,2.611-2.61A2.611,2.611,0,0,1,342.157,585.106Z" transform="translate(-224.874 -201.473)" fill="#fff"/>
        <path id="Path_2756-2" data-name="Path 2756" d="M365.349,591.2a5.1,5.1,0,1,1-5.1,5.1A5.1,5.1,0,0,1,365.349,591.2Z" transform="translate(-284.197 -194.363)" fill="#fff"/>
        <path id="Path_2757-2" data-name="Path 2757" d="M386.683,585.33a2.772,2.772,0,1,1,2.772-2.772A2.772,2.772,0,0,1,386.683,585.33Z" transform="translate(-341.535 -201.535)" fill="#fff"/>
        <path id="Path_2758-2" data-name="Path 2758" d="M409.447,600.078a4.151,4.151,0,1,1,4.151-4.151A4.152,4.152,0,0,1,409.447,600.078Z" transform="translate(-400.547 -193.997)" fill="#fff"/>
        <path id="Path_2759-2" data-name="Path 2759" d="M409.984,616.6a5.537,5.537,0,1,1-5.537,5.537A5.536,5.536,0,0,1,409.984,616.6Z" transform="translate(-401.084 -178.388)" fill="#fff"/>
        <path id="Path_2760-2" data-name="Path 2760" d="M339.3,659.661a3.008,3.008,0,1,1,3.008,3.008A3.008,3.008,0,0,1,339.3,659.661Z" transform="translate(-225.027 -153.23)" fill="#fff"/>
        <path id="Path_2761-2" data-name="Path 2761" d="M387.127,638.263a3.92,3.92,0,1,1,3.92-3.92A3.919,3.919,0,0,1,387.127,638.263Z" transform="translate(-341.979 -169.768)" fill="#fff"/>
        <path id="Path_2762-2" data-name="Path 2762" d="M387.125,656.1a3.914,3.914,0,1,1-3.915,3.915A3.915,3.915,0,0,1,387.125,656.1Z" transform="translate(-341.977 -153.58)" fill="#fff"/>
        <path id="Path_2763-2" data-name="Path 2763" d="M320.121,675.651a3.114,3.114,0,1,1,3.114-3.114A3.115,3.115,0,0,1,320.121,675.651Z" transform="translate(-166.704 -145.178)" fill="#fff"/>
        <path id="Path_2764-2" data-name="Path 2764" d="M364.712,676.111a3.445,3.445,0,1,1,3.445-3.445A3.445,3.445,0,0,1,364.712,676.111Z" transform="translate(-283.563 -145.306)" fill="#fff"/>
        <path id="Path_2765-2" data-name="Path 2765" d="M201,347.582v44.286L245.054,417.3l44.051-25.433V347.582h.384V392.09l-44.339,25.6-.1.055-44.339-25.6-.1-.056V347.582Z" transform="translate(56.203 -347.582)" fill="#fff"/>
        <path id="Path_2766-2" data-name="Path 2766" d="M255.271,347.582v44.286L299.323,417.3l44.051-25.433V347.582h.384V392.09l-44.339,25.6-.1.055-44.34-25.6-.1-.056V347.582Z" transform="translate(-86.167 -347.582)" fill="#fff"/>
        <path id="Path_2767-2" data-name="Path 2767" d="M309.54,347.582v44.286L353.592,417.3l44.051-25.433V347.582h.384V392.09l-44.34,25.6-.1.055-44.34-25.6-.1-.056V347.582Z" transform="translate(-228.554 -347.582)" fill="#fff"/>
        <path id="Path_2768-2" data-name="Path 2768" d="M435.484,391.868V347.582h.384V392.09l-44.338,25.6-.1.055-28.009-16.171v-.444L391.434,417.3Z" transform="translate(-354.545 -347.582)" fill="#fff"/>
        <path id="Path_2769-2" data-name="Path 2769" d="M326.457,477.293l.1-.055,44.339-25.6v-51.31l-.1-.055-44.339-25.6-.1.055-44.339,25.6v51.31l.1.057Zm44.052-25.876-44.052,25.433-44.052-25.433V400.551l44.052-25.431,44.052,25.431Z" transform="translate(-157.36 -330.499)" fill="#fff"/>
        <path id="Path_2770-2" data-name="Path 2770" d="M380.724,477.293l.1-.055,44.339-25.6v-51.31l-.1-.055-44.339-25.6-.1.055-44.337,25.6v51.31l.1.057Zm44.052-25.876-44.052,25.433-44.05-25.433V400.551l44.05-25.431,44.052,25.431Z" transform="translate(-299.594 -330.499)" fill="#fff"/>
        <path id="Path_2771-2" data-name="Path 2771" d="M390.559,463.852l27.816-16.06V396.926l-27.816-16.06v-.444l28.1,16.226.1.056v51.31l-28.2,16.281Z" transform="translate(-381.679 -326.875)" fill="#fff"/>
        <path id="Path_2772-2" data-name="Path 2772" d="M353.593,524.292l.094-.057,44.341-25.6V447.327l-.1-.055-44.339-25.6-.1.055-44.341,25.6v51.311l.1.055Zm44.05-25.878-44.05,25.433-44.052-25.433V447.548l44.052-25.431,44.05,25.431Z" transform="translate(-228.555 -301.007)" fill="#fff"/>
        <path id="Path_2773-2" data-name="Path 2773" d="M363.425,507.677l28.009,16.17,44.05-25.433V447.549l-44.05-25.432-28.009,16.17v-.444l27.912-16.115.1-.055,44.338,25.6.1.055v51.31l-44.338,25.6-.1.055-28.009-16.171Z" transform="translate(-354.545 -301.007)" fill="#fff"/>
        <path id="Path_2774-2" data-name="Path 2774" d="M380.724,571.291l.1-.055,44.339-25.6V494.325l-.1-.055-44.339-25.6-.1.055-44.337,25.6v51.311l.1.055Zm44.052-25.878-44.052,25.433-44.05-25.433V494.547l44.05-25.431,44.052,25.431Z" transform="translate(-299.594 -271.464)" fill="#fff"/>
        <path id="Path_2775-2" data-name="Path 2775" d="M390.559,557.848l27.816-16.06V490.923l-27.816-16.06v-.444l28.1,16.226.1.055v51.31l-28.2,16.282Z" transform="translate(-381.679 -267.84)" fill="#fff"/>
        <path id="Path_2776-2" data-name="Path 2776" d="M353.593,712.285l.094-.055,44.341-25.6V635.319l-.1-.055-44.339-25.6-.1.057-44.341,25.6V686.63l.1.056Zm44.05-25.877-44.05,25.431-44.052-25.431V635.542l44.052-25.433,44.05,25.433Z" transform="translate(-228.555 -182.857)" fill="#fff"/>
        <path id="Path_2777-2" data-name="Path 2777" d="M363.425,695.669l28.009,16.17,44.05-25.433V635.541l-44.05-25.432-28.009,16.17v-.444l27.912-16.115.1-.056,44.338,25.6.1.056v51.31l-44.338,25.6-.1.056-28.009-16.171Z" transform="translate(-354.545 -182.857)" fill="#fff"/>
        <path id="Path_2778-2" data-name="Path 2778" d="M424.776,697.294V682.54l-44.051-25.433-44.05,25.433v14.755h-.384V682.318l44.338-25.6.1-.056,44.339,25.6.1.056v14.977Z" transform="translate(-299.594 -153.224)" fill="#fff"/>
        <path id="Path_2779-2" data-name="Path 2779" d="M390.559,662.411l28.1,16.226.1.056v14.977h-.384V678.915l-27.816-16.06Z" transform="translate(-381.679 -149.599)" fill="#fff"/>
        <path id="Path_2780-2" data-name="Path 2780" d="M302.97,347.582v52.065l56.66,32.712,56.66-32.712V347.582h2V400.8L359.63,434.671,300.967,400.8V347.582Z" transform="translate(-235.437 -347.582)" fill="#fff"/>
        <path id="Path_2781-2" data-name="Path 2781" d="M428.651,399.647V347.582h2V400.8l-58.66,33.868-.3-.173v-2.312l.3.173Z" transform="translate(-362.814 -347.582)" fill="#fff"/>
        <path id="Path_2782-2" data-name="Path 2782" d="M407.056,399.469l1.3.751v67.738l-1.3.751Z" transform="translate(-398.176 -314.957)" fill="#fff"/>
        <path id="Path_2783-2" data-name="Path 2783" d="M336.331,535.124l57.959-33.463,58.662,33.868v67.739L394.29,637.135l-57.959-33.462Zm57.959,99.7,56.659-32.712V536.685L394.29,503.973,337.63,536.685v65.426Z" transform="translate(-327.451 -250.748)" fill="#fff"/>
        <path id="Path_2784-2" data-name="Path 2784" d="M359.63,698.388l58.663-33.869V596.781L359.63,562.912l-58.663,33.869v67.737Zm56.661-35.025L359.63,696.076l-56.659-32.713V597.937l56.659-32.713,56.661,32.713Z" transform="translate(-235.438 -212.336)" fill="#fff"/>
        <path id="Path_2785-2" data-name="Path 2785" d="M371.694,695.9l.3.173,56.658-32.712V597.937l-56.658-32.712-.3.173v-2.312l.3-.173,58.66,33.868v67.738l-58.66,33.868-.3-.173Z" transform="translate(-362.814 -212.336)" fill="#fff"/>
        <path id="Path_2786-2" data-name="Path 2786" d="M336.331,717.785V657.627l57.959-33.463,58.663,33.868v59.753h-2v-58.6l-56.66-32.712-56.658,32.712v58.6Z" transform="translate(-327.451 -173.715)" fill="#fff"/>
        <path id="Path_2787-2" data-name="Path 2787" d="M407.056,644.475l1.3.751v59.753h-1.3Z" transform="translate(-398.176 -160.909)" fill="#fff"/>
        <circle id="Ellipse_75-2" data-name="Ellipse 75" cx="4.614" cy="4.614" r="4.614" transform="translate(340.886 39.783)" fill="#fff"/>
        <path id="Path_2788-2" data-name="Path 2788" d="M256.7,380.88a4.377,4.377,0,1,1,4.378-4.378A4.378,4.378,0,0,1,256.7,380.88Z" transform="translate(0.598 -332.106)" fill="#fff"/>
        <ellipse id="Ellipse_76-2" data-name="Ellipse 76" cx="2.763" cy="2.763" rx="2.763" ry="2.763" transform="translate(210.432 67.178)" fill="#fff"/>
        <path id="Path_2789-2" data-name="Path 2789" d="M392.525,397.1a4.779,4.779,0,1,1,4.779-4.779A4.779,4.779,0,0,1,392.525,397.1Z" transform="translate(-355.637 -322.384)" fill="#fff"/>
        <ellipse id="Ellipse_77-2" data-name="Ellipse 77" cx="5.635" cy="5.635" rx="5.635" ry="5.635" transform="translate(75.254 38.762)" fill="#fff"/>
        <path id="Path_2790-2" data-name="Path 2790" d="M225.617,391.9a3.675,3.675,0,1,1,3.675,3.675A3.675,3.675,0,0,1,225.617,391.9Z" transform="translate(71.964 -321.957)" fill="#fff"/>
        <ellipse id="Ellipse_78-2" data-name="Ellipse 78" cx="2.963" cy="2.963" rx="2.963" ry="2.963" transform="translate(166.128 41.434)" fill="#fff"/>
        <ellipse id="Ellipse_79-2" data-name="Ellipse 79" cx="3.175" cy="3.175" rx="3.175" ry="3.175" transform="translate(121.813 66.766)" fill="#fff"/>
        <path id="Path_2791-2" data-name="Path 2791" d="M392.26,419.3a4.094,4.094,0,1,1-4.094,4.094A4.094,4.094,0,0,1,392.26,419.3Z" transform="translate(-355.372 -302.476)" fill="#fff"/>
        <circle id="Ellipse_80-2" data-name="Ellipse 80" cx="4.729" cy="4.729" r="4.729" transform="translate(208.465 116.187)" fill="#fff"/>
        <path id="Path_2792-2" data-name="Path 2792" d="M316.084,439.373a4.911,4.911,0,1,1-4.911-4.909A4.91,4.91,0,0,1,316.084,439.373Z" transform="translate(-142.082 -292.938)" fill="#fff"/>
        <ellipse id="Ellipse_81-2" data-name="Ellipse 81" cx="2.968" cy="2.968" rx="2.968" ry="2.968" transform="translate(122.02 220.024)" fill="#fff"/>
        <path id="Path_2793-2" data-name="Path 2793" d="M310.768,466.436A3.865,3.865,0,1,1,306.9,470.3,3.864,3.864,0,0,1,310.768,466.436Z" transform="translate(-141.677 -272.828)" fill="#fff"/>
        <ellipse id="Ellipse_82-2" data-name="Ellipse 82" cx="4.124" cy="4.124" rx="4.124" ry="4.124" transform="translate(120.865 116.792)" fill="#fff"/>
        <ellipse id="Ellipse_83-2" data-name="Ellipse 83" cx="5.857" cy="5.857" rx="5.857" ry="5.857" transform="translate(75.032 191.616)" fill="#fff"/>
        <path id="Path_2794-2" data-name="Path 2794" d="M391.956,489.061a3.309,3.309,0,1,1,3.308-3.31A3.31,3.31,0,0,1,391.956,489.061Z" transform="translate(-355.069 -262.76)" fill="#fff"/>
        <path id="Path_2795-2" data-name="Path 2795" d="M365.785,445.511a5.8,5.8,0,1,1,5.795-5.8A5.8,5.8,0,0,1,365.785,445.511Z" transform="translate(-284.894 -293.28)" fill="#fff"/>
        <path id="Path_2796-2" data-name="Path 2796" d="M337.465,576.8a2.729,2.729,0,1,1-2.73,2.729A2.728,2.728,0,0,1,337.465,576.8Z" transform="translate(-212.477 -203.416)" fill="#fff"/>
        <ellipse id="Ellipse_84-2" data-name="Ellipse 84" cx="3.186" cy="3.186" rx="3.186" ry="3.186" transform="translate(121.802 270.845)" fill="#fff"/>
        <ellipse id="Ellipse_85-2" data-name="Ellipse 85" cx="6.221" cy="6.221" rx="6.221" ry="6.221" transform="translate(74.669 293.329)" fill="#fff"/>
        <path id="Path_2797-2" data-name="Path 2797" d="M391.985,520.5a3.383,3.383,0,1,1,3.383-3.382A3.383,3.383,0,0,1,391.985,520.5Z" transform="translate(-355.098 -243.082)" fill="#fff"/>
        <path id="Path_2798-2" data-name="Path 2798" d="M334.156,611.221a3.672,3.672,0,1,1,3.672,3.672A3.671,3.671,0,0,1,334.156,611.221Z" transform="translate(-212.839 -184.075)" fill="#fff"/>
        <path id="Path_2799-2" data-name="Path 2799" d="M392.527,585.1a4.784,4.784,0,1,1,4.784-4.784A4.785,4.785,0,0,1,392.527,585.1Z" transform="translate(-355.639 -204.212)" fill="#fff"/>
        <path id="Path_2800-2" data-name="Path 2800" d="M392.524,606.87a4.778,4.778,0,1,1-4.777,4.779A4.778,4.778,0,0,1,392.524,606.87Z" transform="translate(-355.637 -184.504)" fill="#fff"/>
        <path id="Path_2801-2" data-name="Path 2801" d="M310.744,630.737a3.8,3.8,0,1,1,3.8-3.8A3.8,3.8,0,0,1,310.744,630.737Z" transform="translate(-141.653 -174.363)" fill="#fff"/>
        <ellipse id="Ellipse_86-2" data-name="Ellipse 86" cx="4.205" cy="4.205" rx="4.205" ry="4.205" transform="translate(76.682 448.368)" fill="#fff"/>
        <path id="Path_2802-2" data-name="Path 2802" d="M310.92,654.189a4.256,4.256,0,1,1-4.256,4.256A4.255,4.255,0,0,1,310.92,654.189Z" transform="translate(-141.829 -154.783)" fill="#fff"/>
        <path id="Path_2803-2" data-name="Path 2803" d="M339.7,673.383a2.372,2.372,0,1,1-2.372-2.374A2.371,2.371,0,0,1,339.7,673.383Z" transform="translate(-212.338 -144.178)" fill="#fff"/>
        <path id="Path_2804-2" data-name="Path 2804" d="M365.253,654.087a4.421,4.421,0,1,1-4.422,4.422A4.421,4.421,0,0,1,365.253,654.087Z" transform="translate(-284.365 -154.848)" fill="#fff"/>
        <path id="Path_2805-2" data-name="Path 2805" d="M392.7,669.255a5.234,5.234,0,1,1-5.234,5.234A5.234,5.234,0,0,1,392.7,669.255Z" transform="translate(-355.813 -145.284)" fill="#fff"/>
      </g>
    </g>
  </g>
</svg>
