<svg xmlns="http://www.w3.org/2000/svg" xmlns:xlink="http://www.w3.org/1999/xlink" width="80" height="80" viewBox="0 0 80 80">
  <defs>
    <clipPath id="clip-path">
      <rect id="Rectangle_140" data-name="Rectangle 140" width="80" height="80" transform="translate(256 2432)" fill="#737373"/>
    </clipPath>
  </defs>
  <g id="Call_Chat" data-name="Call &amp; Chat" transform="translate(-256 -2432)" clip-path="url(#clip-path)">
    <g id="phone" transform="translate(256 2432)">
      <circle id="Ellipse_48" data-name="Ellipse 48" cx="2.339" cy="2.339" r="2.339" transform="translate(37.895 9.435)"/>
      <circle id="Ellipse_49" data-name="Ellipse 49" cx="2.339" cy="2.339" r="2.339" transform="translate(37.895 18.791)"/>
      <circle id="Ellipse_50" data-name="Ellipse 50" cx="2.339" cy="2.339" r="2.339" transform="translate(37.895 28.148)"/>
      <path id="Path_1447" data-name="Path 1447" d="M57.849,61.329,43.814,56.65a2.34,2.34,0,0,0-2.037.273l-5.953,3.969C29.519,57.886,22.036,50.4,19.03,44.1L23,38.145a2.339,2.339,0,0,0,.273-2.037L18.593,22.073a2.339,2.339,0,0,0-2.219-1.6H7.018A7.026,7.026,0,0,0,0,27.491C0,40.422,5.847,53.685,16.042,63.88S39.5,79.922,52.431,79.922A7.026,7.026,0,0,0,59.448,72.9V63.548A2.339,2.339,0,0,0,57.849,61.329ZM54.77,72.9a2.342,2.342,0,0,1-2.339,2.339c-24.546,0-47.753-23.207-47.753-47.753a2.342,2.342,0,0,1,2.339-2.339h7.671L18.472,36.5l-4.044,6.066a2.339,2.339,0,0,0-.225,2.166,39,39,0,0,0,8.678,12.307A39,39,0,0,0,35.188,65.72a2.339,2.339,0,0,0,2.166-.226L43.42,61.45l11.35,3.783Z"/>
      <path id="Path_1448" data-name="Path 1448" d="M77.661.078H30.877a2.339,2.339,0,0,0-2.339,2.339V39.844a2.339,2.339,0,0,0,2.339,2.339h7.018V49.2a2.339,2.339,0,0,0,3.993,1.654l8.671-8.672h27.1A2.339,2.339,0,0,0,80,39.844V2.417A2.339,2.339,0,0,0,77.661.078ZM75.322,37.5H49.591a2.339,2.339,0,0,0-1.654.685l-5.364,5.363V39.844A2.339,2.339,0,0,0,40.234,37.5H33.216V4.756H75.322Z" fill="#1e73c9"/>
      <path id="Path_1449" data-name="Path 1449" d="M49.591,14.113H68.3a2.339,2.339,0,0,0,0-4.678H49.591a2.339,2.339,0,1,0,0,4.678Z"/>
      <path id="Path_1450" data-name="Path 1450" d="M49.591,23.47H68.3a2.339,2.339,0,0,0,0-4.678H49.591a2.339,2.339,0,1,0,0,4.678Z"/>
      <path id="Path_1451" data-name="Path 1451" d="M49.591,32.827H68.3a2.339,2.339,0,0,0,0-4.678H49.591a2.339,2.339,0,1,0,0,4.678Z"/>
    </g>
  </g>
</svg>
