<svg xmlns="http://www.w3.org/2000/svg" width="34.606" height="34.606" viewBox="0 0 34.606 34.606">
    <path d="M4.071 25.446A1.963 1.963 0 0 1 4.665 24l4.411-4.411A1.963 1.963 0 0 1 10.518 19a2.019 2.019 0 0 1 1.527.679l-.4.392q-.336.328-.456.456a5.047 5.047 0 0 0-.318.4 1.706 1.706 0 0 0-.276.541 2.158 2.158 0 0 0-.074.583 2.027 2.027 0 0 0 2.036 2.036 2.158 2.158 0 0 0 .583-.074 1.705 1.705 0 0 0 .541-.276 5.047 5.047 0 0 0 .4-.318q.127-.117.456-.456t.392-.4a2.057 2.057 0 0 1 .7 1.548 1.963 1.963 0 0 1-.594 1.442l-4.368 4.389a1.955 1.955 0 0 1-1.442.573 2.042 2.042 0 0 1-1.442-.551l-3.117-3.1a1.938 1.938 0 0 1-.595-1.418zM18.978 10.5a1.963 1.963 0 0 1 .594-1.442l4.368-4.389a1.963 1.963 0 0 1 1.442-.594 2.048 2.048 0 0 1 1.442.573l3.117 3.1a1.938 1.938 0 0 1 .594 1.421 1.963 1.963 0 0 1-.594 1.442l-4.411 4.411a1.955 1.955 0 0 1-1.442.573 2.049 2.049 0 0 1-1.527-.657l.4-.392q.336-.328.456-.456a5.053 5.053 0 0 0 .318-.4 1.706 1.706 0 0 0 .276-.541 2.158 2.158 0 0 0 .074-.583 2.027 2.027 0 0 0-2.036-2.036 2.158 2.158 0 0 0-.583.074 1.705 1.705 0 0 0-.541.276 5.049 5.049 0 0 0-.4.318q-.127.117-.456.456t-.392.4a2.057 2.057 0 0 1-.699-1.554zM0 25.446a5.785 5.785 0 0 0 1.8 4.3l3.117 3.1a6.118 6.118 0 0 0 8.63-.042l4.368-4.389a5.855 5.855 0 0 0 1.76-4.3 5.964 5.964 0 0 0-1.866-4.432l1.866-1.866a6.144 6.144 0 0 0 8.736.085l4.411-4.411a5.889 5.889 0 0 0 1.781-4.326 5.785 5.785 0 0 0-1.8-4.3l-3.117-3.1a6.118 6.118 0 0 0-8.63.042l-4.368 4.389a5.855 5.855 0 0 0-1.76 4.3 5.964 5.964 0 0 0 1.866 4.432l-1.866 1.866a6.144 6.144 0 0 0-8.736-.085L1.781 21.12A5.889 5.889 0 0 0 0 25.446z"/>
</svg>
