<svg xmlns="http://www.w3.org/2000/svg" xmlns:xlink="http://www.w3.org/1999/xlink" width="136.458" height="136.458" viewBox="0 0 136.458 136.458">
  <defs>
    <linearGradient id="linear-gradient" x1="0.924" y1="0.432" x2="0.04" y2="0.574" gradientUnits="objectBoundingBox">
      <stop offset="0" stop-color="#5fb709"/>
      <stop offset="0.51" stop-color="#5aab0a"/>
      <stop offset="1" stop-color="#4b880f"/>
    </linearGradient>
  </defs>
  <g id="checked" transform="translate(0 -0.002)">
    <path id="Path_576" data-name="Path 576" d="M136.458,68.233A68.229,68.229,0,1,0,68.23,136.46a68.229,68.229,0,0,0,68.228-68.227Z" fill="url(#linear-gradient)"/>
    <path id="Path_577" data-name="Path 577" d="M185.32,156.257c-1.606-4.142-4.879-3.488-8.426-2.785-2.118.441-11.538,3.2-26.444,18.916a126.013,126.013,0,0,0-12.95,15.688,81.44,81.44,0,0,0-5.5-6.146,79.535,79.535,0,0,0-13.128-10.415,6.035,6.035,0,1,0-6.3,10.3,68,68,0,0,1,10.9,8.656,93.666,93.666,0,0,1,9.81,12.12,6.036,6.036,0,0,0,10.882-1.89c.015-.056,2.408-6.671,15.052-20,10.184-10.741,16.976-14.154,19.329-15.1a.346.346,0,0,0,.069-.012,1.9,1.9,0,0,1,.218-.1,6.55,6.55,0,0,1,.633-.213,1.616,1.616,0,0,1-.176.036v-.021q1.585-.689,3.172-1.371C185.521,162.651,186.52,159.35,185.32,156.257Z" transform="translate(-79.523 -110.883)" fill="#fff"/>
  </g>
</svg>
