<svg xmlns="http://www.w3.org/2000/svg" xmlns:xlink="http://www.w3.org/1999/xlink" width="80" height="80" viewBox="0 0 80 80">
  <defs>
    <clipPath id="clip-path">
      <rect id="Rectangle_140" data-name="Rectangle 140" width="80" height="80" transform="translate(256 2432)" fill="#737373"/>
    </clipPath>
  </defs>
  <g id="Comments" transform="translate(-256 -2432)" clip-path="url(#clip-path)">
    <g id="comment" transform="translate(256 2432)">
      <path id="Path_1452" data-name="Path 1452" d="M71.992,68.619a32.917,32.917,0,0,0-9.858-50.77A32.887,32.887,0,1,0,8.008,54.4L.7,61.613a2.346,2.346,0,0,0,1.635,4.012l17.649.084A32.858,32.858,0,0,0,47.109,80l30.556-.156A2.346,2.346,0,0,0,79.3,75.832Zm-59.06-15.8A28.2,28.2,0,1,1,61.092,32.891c0,14.9-11.793,28.323-29.116,28.188L8.03,60.964l4.89-4.825a2.345,2.345,0,0,0,.012-3.324Zm34.177,22.5a28.056,28.056,0,0,1-21.182-9.575c8.922.059,6.554.044,6.964.044A32.926,32.926,0,0,0,64.873,25.216a28.2,28.2,0,0,1,2.195,41.818,2.344,2.344,0,0,0,.012,3.324l4.89,4.825-24.861.129Z"/>
      <path id="Path_1453" data-name="Path 1453" d="M18.907,25.937H47.03a2.344,2.344,0,0,0,0-4.687H18.907a2.344,2.344,0,0,0,0,4.687Z" fill="#1e73c9"/>
      <path id="Path_1454" data-name="Path 1454" d="M18.907,35.312H47.03a2.344,2.344,0,0,0,0-4.687H18.907a2.344,2.344,0,0,0,0,4.687Z" fill="#1e73c9"/>
      <path id="Path_1455" data-name="Path 1455" d="M18.907,44.687H47.03a2.344,2.344,0,0,0,0-4.687H18.907a2.344,2.344,0,0,0,0,4.687Z" fill="#1e73c9"/>
    </g>
  </g>
</svg>
