<svg xmlns="http://www.w3.org/2000/svg" xmlns:xlink="http://www.w3.org/1999/xlink" width="80" height="80" viewBox="0 0 80 80">
  <defs>
    <clipPath id="clip-path">
      <rect id="Rectangle_140" data-name="Rectangle 140" width="80" height="80" transform="translate(256 2432)" fill="#737373"/>
    </clipPath>
  </defs>
  <g id="Mask_Group_12" data-name="Mask Group 12" transform="translate(-256 -2432)" clip-path="url(#clip-path)">
    <g id="coins" transform="translate(256 2432)">
      <g id="Group_3531" data-name="Group 3531">
        <g id="Group_3530" data-name="Group 3530">
          <path id="Path_1442" data-name="Path 1442" d="M23.695,54.073a3.648,3.648,0,1,1,3.648-3.648,2.226,2.226,0,0,0,4.452,0,8.071,8.071,0,0,0-5.874-7.771V42a2.226,2.226,0,0,0-4.452,0v.658a8.083,8.083,0,0,0,2.213,15.858,3.648,3.648,0,1,1-3.648,3.648,2.226,2.226,0,0,0-4.452,0,8.071,8.071,0,0,0,5.874,7.771v.658a2.226,2.226,0,0,0,4.452,0v-.658a8.083,8.083,0,0,0-2.213-15.858Z" fill="#1e73c9"/>
        </g>
      </g>
      <g id="Group_3533" data-name="Group 3533">
        <g id="Group_3532" data-name="Group 3532">
          <path id="Path_1443" data-name="Path 1443" d="M53.316,24.439a4.472,4.472,0,1,1,4.465-4.478,2.226,2.226,0,1,0,4.452,0,8.9,8.9,0,0,0-6.691-8.627V10.32a2.226,2.226,0,1,0-4.452,0v1.014A8.92,8.92,0,0,0,53.316,28.89a4.465,4.465,0,1,1-4.465,4.465,2.226,2.226,0,0,0-4.452,0,8.9,8.9,0,0,0,6.691,8.627v.988a2.226,2.226,0,1,0,4.452,0v-.988a8.912,8.912,0,0,0-2.226-17.543Z" fill="#1e73c9"/>
        </g>
      </g>
      <g id="Group_3535" data-name="Group 3535">
        <g id="Group_3534" data-name="Group 3534">
          <path id="Path_1444" data-name="Path 1444" d="M53.316.007A26.7,26.7,0,0,0,26.645,26.678a26.107,26.107,0,0,0,.738,6.138.446.446,0,0,0-.013.132,24.441,24.441,0,0,0-3.688-.3A23.675,23.675,0,1,0,47.363,56.312a21.892,21.892,0,0,0-.316-3.727A26.665,26.665,0,1,0,53.316.007ZM23.695,75.542a19.23,19.23,0,1,1,0-38.459,18.715,18.715,0,0,1,5.426.79A26.933,26.933,0,0,0,42.147,50.9,19.192,19.192,0,0,1,23.695,75.542ZM53.316,48.884A22.246,22.246,0,0,1,32.941,35.515h2.173a2.226,2.226,0,0,0,0-4.452H31.545a22.184,22.184,0,0,1-.435-4.412v-.026h9.575a2.226,2.226,0,0,0,0-4.452H31.571a22.224,22.224,0,1,1,21.745,26.71Z"/>
        </g>
      </g>
    </g>
  </g>
</svg>
