<svg xmlns="http://www.w3.org/2000/svg" viewBox="0 0 42 40" width="40" height="38">
	<style>
		tspan { white-space:pre }
		.shp0 { fill: #ffffff } 
		.shp1 { fill: #000000 } 
		.shp2 { fill: #1d6fc2 } 
	</style>
	<g id="med_X_logo">
		<path id="Path_2057" class="shp0" d="M5.01 0L37.78 0C38.3 -0.01 38.82 0.09 39.3 0.29C39.78 0.48 40.22 0.77 40.6 1.14C40.97 1.5 41.27 1.94 41.47 2.42C41.68 2.9 41.78 3.41 41.79 3.93L41.79 36.07C41.78 36.59 41.68 37.1 41.47 37.58C41.27 38.06 40.97 38.5 40.6 38.86C40.22 39.23 39.78 39.52 39.3 39.71C38.82 39.91 38.3 40.01 37.78 40L5.01 40C4.49 40.01 3.97 39.91 3.49 39.71C3 39.52 2.56 39.23 2.19 38.86C1.82 38.5 1.52 38.06 1.32 37.58C1.11 37.1 1.01 36.59 1 36.07L1 3.93C1.01 3.41 1.11 2.9 1.32 2.42C1.52 1.94 1.82 1.5 2.19 1.14C2.56 0.77 3 0.48 3.49 0.29C3.97 0.09 4.49 -0.01 5.01 0L5.01 0Z" />
		<g id="Final_Logo_PNG">
			<g id="Orignal">
				<g id="Group_1">
					<path id="Path_1" class="shp1" d="M7.95 5.18L14.66 5.18C14.89 5.18 15.11 5.21 15.33 5.27C15.54 5.32 15.75 5.41 15.95 5.51C16.15 5.62 16.33 5.75 16.49 5.91C16.66 6.06 16.8 6.24 16.92 6.42L25.8 20.45L15.69 20.45L7.14 6.63C7.05 6.49 7.01 6.32 7 6.15C7 5.99 7.04 5.82 7.12 5.67C7.2 5.52 7.33 5.4 7.47 5.31C7.62 5.23 7.78 5.18 7.95 5.18Z" />
					<path id="Path_2" class="shp2" d="M7.95 34.92L14.66 34.92C14.89 34.92 15.11 34.9 15.33 34.84C15.54 34.78 15.75 34.7 15.95 34.59C16.15 34.48 16.33 34.35 16.49 34.2C16.66 34.04 16.8 33.87 16.92 33.68L25.8 19.65L15.69 19.65L7.14 33.47C7.05 33.62 7.01 33.78 7 33.95C7 34.12 7.04 34.29 7.12 34.44C7.2 34.58 7.33 34.71 7.47 34.79C7.62 34.88 7.78 34.92 7.95 34.92L7.95 34.92Z" />
					<g id="Group_4">
						<g id="Group_3">
							<g id="Group_1-2">
								<path id="Path_3" class="shp2" d="M27.18 18.71L34.66 6.63C34.74 6.49 34.79 6.32 34.8 6.15C34.8 5.99 34.76 5.82 34.68 5.67C34.59 5.52 34.47 5.4 34.33 5.31C34.18 5.23 34.02 5.18 33.85 5.18L27.14 5.18C26.91 5.18 26.69 5.21 26.47 5.27C26.26 5.32 26.05 5.4 25.85 5.51C25.65 5.62 25.47 5.75 25.31 5.91C25.15 6.06 25 6.23 24.88 6.42L22.15 10.74L27.18 18.71Z" />
							</g>
							<g id="Group_2">
								<path id="Path_4" class="shp1" d="M27.18 21.39L22.14 29.36L24.88 33.68C25 33.87 25.14 34.04 25.31 34.2C25.47 34.35 25.65 34.48 25.85 34.59C26.04 34.7 26.25 34.78 26.47 34.84C26.69 34.89 26.91 34.92 27.14 34.92L33.85 34.92C34.02 34.92 34.18 34.88 34.33 34.79C34.47 34.71 34.59 34.58 34.68 34.44C34.76 34.29 34.8 34.12 34.8 33.95C34.79 33.78 34.74 33.62 34.66 33.47L27.18 21.39Z" />
							</g>
						</g>
					</g>
				</g>
			</g>
		</g>
		<path id="Path_14637" fill-rule="evenodd" class="shp0" d="M-71.72 39.21L-79.88 39.21L-79.88 14.34L-89.62 39.21L-96.36 39.21L-106.1 14.66L-106.1 39.21L-114 39.21L-114 1.69L-103.15 1.69L-92.88 27.04L-83.14 1.69L-71.72 1.69L-71.72 39.21ZM-47.28 29.73L-40.6 31.63C-40.76 32.23 -40.97 32.82 -41.23 33.38C-41.5 33.94 -41.8 34.48 -42.16 35C-42.51 35.51 -42.91 35.99 -43.34 36.43C-43.78 36.87 -44.25 37.28 -44.75 37.64C-45.33 38.04 -45.93 38.4 -46.56 38.71C-47.19 39.02 -47.84 39.27 -48.51 39.47C-49.18 39.67 -49.87 39.82 -50.56 39.9C-51.25 39.99 -51.95 40.03 -52.65 40C-53.54 40.02 -54.43 39.95 -55.31 39.79C-56.18 39.64 -57.04 39.39 -57.87 39.07C-58.69 38.74 -59.49 38.33 -60.23 37.85C-60.98 37.37 -61.68 36.81 -62.32 36.19C-64.97 33.65 -66.29 30.25 -66.29 25.98C-66.33 25.06 -66.27 24.14 -66.12 23.23C-65.97 22.33 -65.72 21.44 -65.39 20.58C-65.06 19.72 -64.64 18.9 -64.14 18.13C-63.64 17.35 -63.07 16.63 -62.42 15.98C-61.83 15.36 -61.18 14.81 -60.47 14.32C-59.77 13.84 -59.01 13.43 -58.23 13.1C-57.44 12.77 -56.62 12.52 -55.78 12.35C-54.94 12.19 -54.09 12.11 -53.23 12.12C-49.16 12.12 -45.96 13.31 -43.62 15.69C-43.62 15.69 -42.46 18.99 -40.12 25.61C-40.11 25.82 -40.11 26.03 -40.11 26.23C-40.11 26.44 -40.12 26.65 -40.13 26.86C-40.14 27.07 -40.16 27.27 -40.19 27.48C-40.21 27.69 -40.24 27.89 -40.28 28.1L-58.5 28.1C-58.48 28.45 -58.43 28.8 -58.34 29.13C-58.26 29.47 -58.13 29.8 -57.97 30.11C-57.81 30.42 -57.62 30.72 -57.4 30.99C-57.18 31.26 -56.93 31.5 -56.66 31.72C-56.37 31.96 -56.07 32.17 -55.74 32.36C-55.42 32.54 -55.08 32.7 -54.73 32.82C-54.38 32.94 -54.02 33.04 -53.66 33.1C-53.29 33.16 -52.92 33.18 -52.55 33.17C-49.84 33.17 -48.09 32.03 -47.28 29.74L-47.28 29.73ZM-47.86 22.91C-47.88 22.62 -47.92 22.33 -47.99 22.05C-48.06 21.76 -48.15 21.48 -48.27 21.22C-48.39 20.95 -48.53 20.7 -48.7 20.46C-48.87 20.22 -49.05 19.99 -49.26 19.79C-49.52 19.55 -49.8 19.35 -50.11 19.17C-50.41 18.99 -50.73 18.84 -51.06 18.73C-51.39 18.62 -51.73 18.54 -52.08 18.49C-52.43 18.45 -52.78 18.44 -53.13 18.47C-53.75 18.44 -54.38 18.53 -54.98 18.73C-55.58 18.93 -56.13 19.25 -56.61 19.66C-57.09 20.07 -57.49 20.56 -57.79 21.12C-58.08 21.68 -58.27 22.28 -58.34 22.91L-47.86 22.91ZM-9.21 0.9L-9.21 34.5C-9.21 36.09 -9.14 37.66 -9 39.21L-16.69 39.21C-16.72 39 -16.75 38.79 -16.78 38.58C-16.81 38.37 -16.83 38.16 -16.85 37.94C-16.86 37.73 -16.88 37.52 -16.89 37.31C-16.89 37.09 -16.9 36.88 -16.9 36.67C-17.08 36.91 -17.27 37.15 -17.48 37.37C-17.69 37.59 -17.92 37.79 -18.16 37.98C-18.39 38.17 -18.64 38.35 -18.9 38.5C-19.17 38.66 -19.44 38.8 -19.72 38.92C-20.04 39.07 -20.38 39.2 -20.72 39.31C-21.06 39.42 -21.41 39.51 -21.76 39.59C-22.11 39.66 -22.47 39.71 -22.83 39.75C-23.18 39.78 -23.54 39.8 -23.9 39.79C-24.77 39.81 -25.63 39.74 -26.48 39.58C-27.33 39.43 -28.16 39.18 -28.95 38.84C-29.75 38.51 -30.51 38.09 -31.22 37.59C-31.93 37.1 -32.58 36.53 -33.17 35.9C-33.79 35.24 -34.34 34.51 -34.81 33.74C-35.29 32.97 -35.68 32.15 -36 31.31C-36.31 30.46 -36.55 29.58 -36.69 28.68C-36.83 27.79 -36.89 26.88 -36.86 25.98C-36.89 25.09 -36.83 24.19 -36.69 23.31C-36.55 22.43 -36.33 21.56 -36.02 20.72C-35.71 19.88 -35.33 19.08 -34.87 18.31C-34.41 17.55 -33.87 16.83 -33.27 16.16C-32.7 15.53 -32.06 14.96 -31.37 14.47C-30.68 13.97 -29.93 13.56 -29.15 13.22C-28.36 12.89 -27.54 12.64 -26.71 12.48C-25.87 12.32 -25.02 12.25 -24.17 12.28C-20.58 12.28 -18.23 13.18 -17.11 14.98L-17.11 0.9L-9.21 0.9ZM-27.88 22.26C-28.1 22.64 -28.29 23.04 -28.44 23.45C-28.59 23.86 -28.69 24.29 -28.75 24.72C-28.81 25.16 -28.83 25.59 -28.8 26.03C-28.83 26.47 -28.81 26.91 -28.75 27.35C-28.69 27.78 -28.58 28.21 -28.44 28.63C-28.29 29.04 -28.1 29.44 -27.88 29.82C-27.65 30.2 -27.39 30.55 -27.09 30.87C-26.54 31.42 -25.88 31.85 -25.16 32.15C-24.45 32.44 -23.68 32.59 -22.9 32.59C-22.13 32.59 -21.36 32.44 -20.64 32.15C-19.92 31.85 -19.27 31.42 -18.71 30.87C-18.42 30.55 -18.15 30.2 -17.93 29.82C-17.7 29.44 -17.51 29.04 -17.37 28.63C-17.22 28.21 -17.12 27.78 -17.05 27.35C-16.99 26.91 -16.98 26.47 -17 26.03C-16.98 25.59 -16.99 25.16 -17.05 24.72C-17.11 24.29 -17.22 23.86 -17.36 23.45C-17.51 23.04 -17.7 22.64 -17.93 22.26C-18.15 21.89 -18.42 21.54 -18.72 21.22C-19.27 20.68 -19.93 20.25 -20.64 19.96C-21.36 19.67 -22.13 19.52 -22.9 19.52C-23.68 19.52 -24.44 19.67 -25.16 19.96C-25.88 20.25 -26.53 20.68 -27.09 21.22C-27.39 21.54 -27.65 21.89 -27.88 22.26Z" />
	</g>
</svg>