<svg xmlns="http://www.w3.org/2000/svg" xmlns:xlink="http://www.w3.org/1999/xlink" width="80" height="80" viewBox="0 0 80 80">
  <defs>
    <clipPath id="clip-path">
      <rect id="Rectangle_140" data-name="Rectangle 140" width="80" height="80" transform="translate(256 2432)" fill="#737373"/>
    </clipPath>
  </defs>
  <g id="Order_History" data-name="Order History" transform="translate(-256 -2432)" clip-path="url(#clip-path)">
    <path id="history" d="M45.76,8A40,40,0,0,0,18.24,19.08V12a4,4,0,0,0-8,0V30a4,4,0,0,0,4,4h18a4,4,0,0,0,0-8h-9.6A32,32,0,1,1,45.76,80a4,4,0,1,0,0,8,40,40,0,0,0,0-80Z" transform="translate(248 2424)" stroke="#f3f9ec" stroke-width="3"/>
    <path id="Path_1461" data-name="Path 1461" d="M63.333,33.333H30a3.333,3.333,0,0,0-3.333,3.333v6.667A16.664,16.664,0,0,0,58.6,50h4.729A6.675,6.675,0,0,0,70,43.333V40A6.675,6.675,0,0,0,63.333,33.333Zm-10,10a10,10,0,0,1-20,0V40h20Zm10,0H60V40h3.333Z" transform="translate(247.667 2436)" fill="#1e73c9" stroke="#f3f9ec" stroke-width="2"/>
    <path id="Path_1462" data-name="Path 1462" d="M40,26.667h6.667A6.675,6.675,0,0,0,53.333,20V16.667H46.667V20H40a6.675,6.675,0,0,0-6.667,6.667V30H40Z" transform="translate(247.667 2436)" fill="#1e73c9" stroke="#f3f9ec" stroke-width="2"/>
  </g>
</svg>
