<svg xmlns="http://www.w3.org/2000/svg" xmlns:xlink="http://www.w3.org/1999/xlink" width="80" height="80" viewBox="0 0 80 80">
  <defs>
    <clipPath id="clip-path">
      <rect id="Rectangle_144" data-name="Rectangle 144" width="80" height="80" transform="translate(256 2432)" fill="#737373"/>
    </clipPath>
  </defs>
  <g id="Language_Conversion" data-name="Language Conversion" transform="translate(-256 -2432)" clip-path="url(#clip-path)">
    <g id="chat" transform="translate(256 2432)">
      <g id="Group_3544" data-name="Group 3544">
        <g id="Group_3543" data-name="Group 3543">
          <path id="Path_1469" data-name="Path 1469" d="M72.969,23.592H56.563V11.874a7.039,7.039,0,0,0-7.031-7.031H7.031A7.039,7.039,0,0,0,0,11.874V40A7.039,7.039,0,0,0,7.031,47.03H9.375v7.031a2.346,2.346,0,0,0,3.644,1.95l10.419-6.946v9.683a7.039,7.039,0,0,0,7.031,7.031h23.04l13.472,8.981a2.345,2.345,0,0,0,3.644-1.95V65.78h2.344A7.039,7.039,0,0,0,80,58.749V30.624A7.039,7.039,0,0,0,72.969,23.592ZM24.475,42.74l-.007,0L14.063,49.682v-5a2.344,2.344,0,0,0-2.344-2.344H7.031A2.346,2.346,0,0,1,4.688,40V11.874A2.346,2.346,0,0,1,7.031,9.53h42.5a2.346,2.346,0,0,1,2.344,2.344V40a2.346,2.346,0,0,1-2.344,2.344H25.781A2.382,2.382,0,0,0,24.475,42.74ZM75.313,58.749a2.346,2.346,0,0,1-2.344,2.344H68.281a2.344,2.344,0,0,0-2.344,2.344v5L55.519,61.486a2.343,2.343,0,0,0-1.3-.394H30.469a2.346,2.346,0,0,1-2.344-2.344V47.03H49.531A7.039,7.039,0,0,0,56.563,40V28.28H72.969a2.346,2.346,0,0,1,2.344,2.344Z"/>
        </g>
      </g>
      <g id="Group_3546" data-name="Group 3546">
        <g id="Group_3545" data-name="Group 3545">
          <path id="Path_1470" data-name="Path 1470" d="M30.469,28.28H11.719a2.344,2.344,0,0,0,0,4.688h18.75a2.344,2.344,0,0,0,0-4.688Z" fill="#1e73c9"/>
        </g>
      </g>
      <g id="Group_3548" data-name="Group 3548">
        <g id="Group_3547" data-name="Group 3547">
          <path id="Path_1471" data-name="Path 1471" d="M44.844,18.9H11.719a2.344,2.344,0,0,0,0,4.688H44.844a2.344,2.344,0,1,0,0-4.688Z" fill="#1e73c9"/>
        </g>
      </g>
    </g>
  </g>
</svg>
