<svg xmlns="http://www.w3.org/2000/svg" width="155.789" height="40" viewBox="0 0 155.789 40">
  <g id="med_X_logo" data-name="med X logo" transform="translate(194 -228)">
    <path id="Path_2057" data-name="Path 2057" d="M4.012,0H36.777a3.974,3.974,0,0,1,4.012,3.934V36.066A3.974,3.974,0,0,1,36.777,40H4.012A3.974,3.974,0,0,1,0,36.066V3.934A3.974,3.974,0,0,1,4.012,0Z" transform="translate(-79 228)" fill="#fff"/>
    <g id="Final_Logo_PNG" data-name="Final Logo PNG" transform="translate(-73 233.182)">
      <g id="Orignal" transform="translate(0 0)">
        <g id="Group_1" data-name="Group 1">
          <path id="Path_1" data-name="Path 1" d="M193.473,185.361h6.709a2.673,2.673,0,0,1,2.258,1.243l8.88,14.026H201.213l-8.549-13.818A.951.951,0,0,1,193.473,185.361Z" transform="translate(-192.52 -185.361)"/>
          <path id="Path_2" data-name="Path 2" d="M193.473,327.6h6.709a2.673,2.673,0,0,0,2.258-1.243l8.88-14.026H201.213l-8.549,13.818A.951.951,0,0,0,193.473,327.6Z" transform="translate(-192.52 -297.858)" fill="#1d6fc2"/>
          <g id="Group_4" data-name="Group 4" transform="translate(15.146)">
            <g id="Group_3" data-name="Group 3" transform="translate(0)">
              <g id="Group_1-2" data-name="Group 1">
                <path id="Path_3" data-name="Path 3" d="M322.8,198.889l7.472-12.077a.951.951,0,0,0-.809-1.451h-6.709A2.673,2.673,0,0,0,320.5,186.6l-2.737,4.323Z" transform="translate(-317.763 -185.361)" fill="#1d6fc2"/>
              </g>
              <g id="Group_2" data-name="Group 2" transform="translate(0 16.213)">
                <path id="Path_4" data-name="Path 4" d="M322.8,326.809l-5.041,7.962,2.737,4.323a2.673,2.673,0,0,0,2.258,1.243h6.709a.951.951,0,0,0,.809-1.451Z" transform="translate(-317.763 -326.809)"/>
              </g>
            </g>
          </g>
        </g>
      </g>
    </g>
    <path id="Path_14637" data-name="Path 14637" d="M44.209,20.206H36.047V-4.661L26.306,20.206h-6.74L9.824-4.344v24.55h-7.9V-17.306H12.773L23.041,8.037l9.742-25.344H44.209ZM57.584,3.91H68.063a4.741,4.741,0,0,0-1.4-3.122A5.177,5.177,0,0,0,62.8-.534,5.015,5.015,0,0,0,57.584,3.91Zm11.058,6.825,6.688,1.9a10.932,10.932,0,0,1-4.16,6.005A12.852,12.852,0,0,1,63.272,21a13.451,13.451,0,0,1-9.663-3.809q-3.976-3.809-3.976-10.212a13.515,13.515,0,0,1,3.87-10,12.567,12.567,0,0,1,9.189-3.862q6.108,0,9.61,3.571t3.5,9.921A11.082,11.082,0,0,1,75.646,9.1H57.427A4.869,4.869,0,0,0,59.27,12.72a6.2,6.2,0,0,0,4.107,1.455Q67.432,14.175,68.643,10.736ZM106.714-18.1V15.5q0,2.381.211,4.709H99.237a15.494,15.494,0,0,1-.211-2.54,6.814,6.814,0,0,1-2.817,2.249,9.775,9.775,0,0,1-4.186.873A12.231,12.231,0,0,1,82.755,16.9a13.839,13.839,0,0,1-3.686-9.921A13.93,13.93,0,0,1,82.65-2.836a11.84,11.84,0,0,1,9.11-3.889q5.371,0,7.056,2.7V-18.1ZM88.837,2.217a6.472,6.472,0,0,0-1.711,4.815,6.564,6.564,0,0,0,1.711,4.841,5.956,5.956,0,0,0,8.373,0,6.564,6.564,0,0,0,1.711-4.841A6.472,6.472,0,0,0,97.21,2.217a6.022,6.022,0,0,0-8.373,0Z" transform="translate(-195.925 247)" fill="#fff"/>
  </g>
</svg>
