<svg xmlns="http://www.w3.org/2000/svg" xmlns:xlink="http://www.w3.org/1999/xlink" width="80" height="80" viewBox="0 0 80 80">
  <defs>
    <clipPath id="clip-path">
      <rect id="Rectangle_140" data-name="Rectangle 140" width="80" height="80" transform="translate(256 2432)" fill="#737373"/>
    </clipPath>
  </defs>
  <g id="Loyalty_Points" data-name="Loyalty Points" transform="translate(-256 -2432)" clip-path="url(#clip-path)">
    <g id="XMLID_2590_" transform="translate(256 2432)">
      <g id="XMLID_212_" transform="translate(-12.412 -0.412)">
        <path id="XMLID_215_" d="M16.562,39.975a36.85,36.85,0,1,1,36.85,36.85A36.891,36.891,0,0,1,16.562,39.975Z" transform="translate(0 0)" fill="none" stroke="#000" stroke-width="4"/>
        <path id="XMLID_885_" d="M30.291,27.448a4.395,4.395,0,0,0,1.12,4.533l3.929,3.828-.926,5.406a4.416,4.416,0,0,0,6.417,4.66l4.854-2.554,4.856,2.551a4.422,4.422,0,0,0,6.415-4.663L56.027,35.8l3.927-3.83A4.422,4.422,0,0,0,57.5,24.431l-5.428-.787-2.429-4.918a4.394,4.394,0,0,0-3.965-2.464h0a4.4,4.4,0,0,0-3.965,2.466l-2.426,4.919-5.428.79A4.4,4.4,0,0,0,30.291,27.448Zm10.983.875a2.457,2.457,0,0,0,1.849-1.344l2.557-5.185,2.56,5.183a2.457,2.457,0,0,0,1.85,1.343l5.721.83-4.138,4.036a2.457,2.457,0,0,0-.706,2.175l.979,5.7L46.828,38.37a2.457,2.457,0,0,0-2.286,0l-5.116,2.691.976-5.7a2.457,2.457,0,0,0-.707-2.174l-4.141-4.034Z" transform="translate(7.731 7.518)" fill="#1e73c9"/>
        <path id="XMLID_887_" d="M51.266,68.009A30.959,30.959,0,0,0,63.081,8.437,2.457,2.457,0,0,0,61.2,12.978a26.04,26.04,0,1,1-19.824-.022,2.457,2.457,0,1,0-1.866-4.545,30.959,30.959,0,0,0,11.752,59.6Z" transform="translate(2.146 2.919)"/>
        <path id="XMLID_888_" d="M40.914,11.788a2.458,2.458,0,1,0-1.737-.72A2.475,2.475,0,0,0,40.914,11.788Z" transform="translate(12.53 2.146)"/>
      </g>
    </g>
  </g>
</svg>
