<svg xmlns="http://www.w3.org/2000/svg" width="48" height="48" viewBox="0 0 48 48">
    <defs>
        <clipPath id="prefix__clip-path">
            <path id="prefix__Rectangle_177" fill="#d6d6d6" d="M0 0H48V48H0z" data-name="Rectangle 177" transform="translate(654 7601)"/>
        </clipPath>
    </defs>
    <g id="prefix__Mask_Group_69" clip-path="url(#prefix__clip-path)" data-name="Mask Group 69" transform="translate(-654 -7601)">
        <g id="prefix__mobile" transform="translate(651.75 7601)">
            <path id="prefix__Path_2080" fill="#58565d" d="M39.75 3.09v41.82a3 3 0 0 1-3 3.09h-21a3 3 0 0 1-3-3.09V3.09a3 3 0 0 1 3-3.09h21a3 3 0 0 1 3 3.09z" data-name="Path 2080"/>
            <path id="prefix__Path_2081" fill="#4eb9e9" d="M32.055 1.95l-.84.765a1.755 1.755 0 0 1-1.17.45H22.26a1.815 1.815 0 0 1-1.185-.45l-.825-.765a1.815 1.815 0 0 0-1.185-.45h-3.1a1.7 1.7 0 0 0-1.71 1.665v41.67A1.7 1.7 0 0 0 15.96 46.5h20.58a1.7 1.7 0 0 0 1.71-1.665V3.165A1.7 1.7 0 0 0 36.54 1.5h-3.315a1.755 1.755 0 0 0-1.17.45z" data-name="Path 2081"/>
            <path id="prefix__Path_2082" fill="#fff" d="M30.75 45h-9a.75.75 0 0 1 0-1.5h9a.75.75 0 0 1 0 1.5z" data-name="Path 2082"/>
        </g>
    </g>
</svg>
