<svg xmlns="http://www.w3.org/2000/svg" xmlns:xlink="http://www.w3.org/1999/xlink" width="80" height="80" viewBox="0 0 80 80">
  <defs>
    <clipPath id="clip-path">
      <rect id="Rectangle_140" data-name="Rectangle 140" width="80" height="80" transform="translate(256 2432)" fill="#737373"/>
    </clipPath>
  </defs>
  <g id="Multiple_Payment_Modes_" data-name="Multiple Payment Modes " transform="translate(-256 -2432)" clip-path="url(#clip-path)">
    <path id="card_to_card_transaction" data-name="card to card transaction" d="M58.182,61.818a3.636,3.636,0,0,0-3.636,3.636v3.636a3.636,3.636,0,0,1-3.636,3.636H14.545a3.636,3.636,0,0,1-3.636-3.636V54.545h3.636a3.636,3.636,0,0,0,0-7.273H10.909V43.636A3.636,3.636,0,0,1,14.545,40a3.636,3.636,0,0,0,0-7.273A10.909,10.909,0,0,0,3.636,43.636V69.091A10.909,10.909,0,0,0,14.545,80H50.909A10.909,10.909,0,0,0,61.818,69.091V65.455A3.636,3.636,0,0,0,58.182,61.818ZM21.818,65.455h3.636a3.636,3.636,0,1,0,0-7.273H21.818a3.636,3.636,0,1,0,0,7.273Z" transform="translate(252.364 2428.364)" fill="#1d72c9"/>
    <path id="card_to_card_transaction-2" data-name="card to card transaction" d="M72.727,7.273H36.364A10.909,10.909,0,0,0,25.455,18.182V43.636A10.909,10.909,0,0,0,36.364,54.545H72.727A10.909,10.909,0,0,0,83.636,43.636V18.182A10.909,10.909,0,0,0,72.727,7.273Zm3.636,36.364a3.636,3.636,0,0,1-3.636,3.636H36.364a3.636,3.636,0,0,1-3.636-3.636V18.182a3.636,3.636,0,0,1,3.636-3.636H72.727a3.636,3.636,0,0,1,3.636,3.636ZM63.636,29.091A5.418,5.418,0,0,0,60,30.509a5.455,5.455,0,1,0,0,8.073,5.455,5.455,0,1,0,3.636-9.491Z" transform="translate(252.364 2428.364)"/>
  </g>
</svg>
