<svg xmlns="http://www.w3.org/2000/svg" width="38.934" height="38.885" viewBox="0 0 38.934 38.885">
    <path d="M20.4 26.214a1.946 1.946 0 1 0 1.946-1.946 1.946 1.946 0 0 0-1.946 1.946zm-8.719 0a1.946 1.946 0 1 0 1.946-1.946 1.946 1.946 0 0 0-1.942 1.946zm3.893-6.793a1.946 1.946 0 0 0 1.946 1.946h1.946a1.946 1.946 0 1 0 0-3.893h-1.942a1.946 1.946 0 0 0-1.946 1.947zM12.791 2.878a5.839 5.839 0 0 0-.564 4.476 5.644 5.644 0 0 0 1.09 2.121L.261 32.053a1.966 1.966 0 0 0 1.693 2.939h25.633a5.722 5.722 0 0 0 5.508 3.893 5.839 5.839 0 0 0 5.839-5.683v-1.13A36.143 36.143 0 0 0 20.619.718a5.839 5.839 0 0 0-7.824 2.141zm-7.47 28.221L16.434 11.85a24.465 24.465 0 0 1 10.822 19.249zm13.39-27a32.269 32.269 0 0 1 16.33 28.946 1.946 1.946 0 1 1-3.893 0v-.993A28.221 28.221 0 0 0 16.8 7.491a1.752 1.752 0 0 1-.856-1.129 1.946 1.946 0 0 1 .175-1.46 1.946 1.946 0 0 1 2.589-.817z"/>
</svg>
