<svg xmlns="http://www.w3.org/2000/svg" xmlns:xlink="http://www.w3.org/1999/xlink" width="80" height="80" viewBox="0 0 80 80">
  <defs>
    <clipPath id="clip-path">
      <rect id="Rectangle_138" data-name="Rectangle 138" width="80" height="80" transform="translate(256 2432)" fill="#fff"/>
    </clipPath>
  </defs>
  <g id="Register_Login_" data-name="Register, Login " transform="translate(-256 -2432)" clip-path="url(#clip-path)">
    <g id="user" transform="translate(256 2433.667)">
      <path id="Path_1410" data-name="Path 1410" d="M30,33.333A16.667,16.667,0,1,1,46.667,16.667,16.685,16.685,0,0,1,30,33.333ZM30,5A11.667,11.667,0,1,0,41.667,16.667,11.68,11.68,0,0,0,30,5Zm0,0"/>
      <path id="Union_4" data-name="Union 4" d="M-1324.166-2575a5.841,5.841,0,0,1-5.834-5.835V-2592.5a5.84,5.84,0,0,1,5.834-5.834h.833v-5a8.345,8.345,0,0,1,8.333-8.333,8.345,8.345,0,0,1,8.333,8.333v5h.833A5.84,5.84,0,0,1-1300-2592.5v11.666a5.841,5.841,0,0,1-5.834,5.835Zm-.833-17.5v11.666a.834.834,0,0,0,.833.834h18.333a.834.834,0,0,0,.833-.834V-2592.5a.834.834,0,0,0-.833-.834h-18.333A.834.834,0,0,0-1325-2592.5Zm13.333-5.834v-5a3.338,3.338,0,0,0-3.333-3.333,3.339,3.339,0,0,0-3.334,3.333v5Z" transform="translate(1380 2651.667)" fill="#1e73c9"/>
      <path id="Path_1413" data-name="Path 1413" d="M41.667,70H2.5A2.5,2.5,0,0,1,0,67.5V55.833A15.852,15.852,0,0,1,15.833,40H45a15.787,15.787,0,0,1,7.93,2.133,2.5,2.5,0,1,1-2.517,4.32A10.8,10.8,0,0,0,45,45H15.833A10.846,10.846,0,0,0,5,55.833V65H41.667a2.5,2.5,0,0,1,0,5Zm0,0"/>
    </g>
  </g>
</svg>
