<svg xmlns="http://www.w3.org/2000/svg" width="43.677" height="38.729" viewBox="0 0 43.677 38.729">
  <path id="restaurant" d="M43.258,5.451,37.628.333A1.279,1.279,0,0,0,36.767,0H6.91a1.279,1.279,0,0,0-.861.333L.419,5.451A1.278,1.278,0,0,0,0,6.4V9.964a5.386,5.386,0,0,0,2.218,4.355V37.45a1.279,1.279,0,0,0,1.28,1.28H40.18a1.279,1.279,0,0,0,1.28-1.28V14.318a5.386,5.386,0,0,0,2.218-4.355V6.4a1.278,1.278,0,0,0-.419-.947ZM36.273,2.559l2.815,2.559H34.863L33.173,2.559Zm-6.165,0,1.681,2.547.008.012H26.979l-.563-2.559Zm2.787,5.118V9.964a2.832,2.832,0,0,1-5.665,0V7.678ZM19.882,2.559H23.8l.563,2.559h-5.04Zm-.875,5.118h5.664V9.964a2.832,2.832,0,1,1-5.664,0ZM11.889,5.106,13.57,2.559h3.691L16.7,5.118H11.881ZM10.783,7.678h5.665V9.964a2.832,2.832,0,0,1-5.665,0ZM7.4,2.559h3.1L8.815,5.118H4.59Zm-4.845,7.4V7.678H8.224V9.964a2.832,2.832,0,1,1-5.664,0ZM28.578,36.17H4.777v-1.6l7.3-7.3a1.279,1.279,0,0,0-1.809-1.809L4.777,30.948V20.388H22.759L11.721,31.426a1.279,1.279,0,1,0,1.809,1.809L26.378,20.388h2.2Zm10.237,0H31.137V20.388h7.678ZM38.9,17.829H4.777v-2.51A5.367,5.367,0,0,0,9.5,13.445a5.382,5.382,0,0,0,8.224,0,5.381,5.381,0,0,0,8.223,0,5.382,5.382,0,0,0,8.224,0A5.367,5.367,0,0,0,38.9,15.319ZM38.286,12.8a2.835,2.835,0,0,1-2.832-2.832V7.678h5.664V9.964A2.835,2.835,0,0,1,38.286,12.8Zm0,0"/>
</svg>
