<svg xmlns="http://www.w3.org/2000/svg" xmlns:xlink="http://www.w3.org/1999/xlink" width="80" height="80" viewBox="0 0 80 80">
  <defs>
    <clipPath id="clip-path">
      <rect id="Rectangle_141" data-name="Rectangle 141" width="80" height="80" transform="translate(256 2432)" fill="#737373"/>
    </clipPath>
  </defs>
  <g id="Reviews" transform="translate(-256 -2432)" clip-path="url(#clip-path)">
    <path id="rating" d="M12.95,48.613a3.124,3.124,0,0,0,4.335-.859A27.18,27.18,0,0,1,62.407,47.7a3.125,3.125,0,0,0,5.186-3.489,33.352,33.352,0,0,0-16.44-12.8,17.656,17.656,0,1,0-22.39-.07A33.344,33.344,0,0,0,12.09,44.278,3.125,3.125,0,0,0,12.95,48.613ZM40,6.328A11.406,11.406,0,1,1,28.594,17.734,11.419,11.419,0,0,1,40,6.328Z" transform="translate(256 2432)"/>
  </g>
</svg>
