<svg xmlns="http://www.w3.org/2000/svg" width="32.829" height="32.831" viewBox="0 0 32.829 32.831">
  <g id="confetti" transform="translate(0 0.002)">
    <g id="Group_39" data-name="Group 39" transform="translate(0 -0.001)">
      <g id="Group_38" data-name="Group 38">
        <path id="Path_578" data-name="Path 578" d="M22.177,18.072a17.17,17.17,0,0,1,3.652-1.238.641.641,0,1,0-.266-1.255,18.639,18.639,0,0,0-4.215,1.466q-1.27-1.507-2.666-2.9-1.471-1.477-3.075-2.813A14.487,14.487,0,0,0,17.7,7.7,19.007,19.007,0,0,0,18.948.64a.641.641,0,1,0-1.282,0,15.491,15.491,0,0,1-3.06,9.9q-.543-.416-1.11-.8c-1.9-1.282-3.032-1.582-3.665-.972l-.014.013a1.055,1.055,0,0,0-.3.593L.05,31.94a.641.641,0,0,0,.839.839l22.567-9.463a1.053,1.053,0,0,0,.549-.26l.032-.029.013-.011L24.066,23c.61-.633.309-1.764-.972-3.665q-.438-.646-.917-1.263ZM5.086,28.261a4.314,4.314,0,0,1-.575,1.609L1.839,30.99l2.714-6.472a7.124,7.124,0,0,1,.533,3.743Zm3.946-2.17a4.108,4.108,0,0,1-1.139,2.36L6.2,29.16a8.4,8.4,0,0,0-.977-6.246l1.922-4.582c1.995,3.78,2.145,6.285,1.886,7.759Zm2.287.923-1.382.58a6.473,6.473,0,0,0,.332-1.141c.513-2.62-.325-5.858-2.489-9.63l.694-1.654A10.885,10.885,0,0,1,9.9,17.354a.641.641,0,0,0,1.178-.506,12.167,12.167,0,0,0-2.059-2.985l1.06-2.528q.279.51.692,1.122.285.422.622.874a12.06,12.06,0,0,1,1.715,9.008,13.021,13.021,0,0,1-1.789,4.676Zm4.941-2.072-3.044,1.277a16.162,16.162,0,0,0,1.154-3.643,13.942,13.942,0,0,0-.122-5.895q.456.481.937.963,1.371,1.375,2.855,2.629a6.353,6.353,0,0,1-1.781,4.67Zm2.21-.927a8.662,8.662,0,0,0,.782-2.768c.387.3.762.567,1.121.808.409.276.782.506,1.123.692Zm2.255-3.275a37.993,37.993,0,0,1-4.634-4,37.989,37.989,0,0,1-4-4.634,7.472,7.472,0,0,1-1.28-2.335,7.475,7.475,0,0,1,2.335,1.28q.3.213.615.452l-.135.139a.641.641,0,0,0,.907.907q.121-.121.238-.245c.973.8,2,1.743,3.009,2.751q1.254,1.249,2.4,2.6l-.347.2a.641.641,0,0,0,.641,1.111l.534-.3c.279.354.537.7.771,1.027a7.471,7.471,0,0,1,1.28,2.335,7.476,7.476,0,0,1-2.334-1.287Z" transform="translate(0 0.001)" fill="#f15c2c"/>
        <path id="Path_579" data-name="Path 579" d="M162.988,283.012a.644.644,0,1,0,.022.055A.522.522,0,0,0,162.988,283.012Z" transform="translate(-151.39 -264.511)" fill="#f15c2c"/>
        <path id="Path_580" data-name="Path 580" d="M370.692,103.515a.641.641,0,0,0,.907,0,9.126,9.126,0,0,1,5.448-2.226.641.641,0,1,0-.1-1.278,10.45,10.45,0,0,0-6.252,2.6A.641.641,0,0,0,370.692,103.515Z" transform="translate(-346.747 -93.596)" fill="#f15c2c"/>
        <path id="Path_581" data-name="Path 581" d="M492.16,101.473l-.055-.014a.641.641,0,1,0-.31,1.244l.033.008a.641.641,0,0,0,.332-1.239Z" transform="translate(-459.806 -94.935)" fill="#f15c2c"/>
        <path id="Path_582" data-name="Path 582" d="M64.145,46.186h.641v.641a.641.641,0,0,0,1.282,0v-.641h.641a.641.641,0,0,0,0-1.282h-.641v-.641a.641.641,0,1,0-1.282,0V44.9h-.641a.641.641,0,0,0,0,1.282Z" transform="translate(-59.432 -40.824)" fill="#f15c2c"/>
        <path id="Path_583" data-name="Path 583" d="M298.143,143.184h.641v.641a.641.641,0,1,0,1.282,0v-.641h.641a.641.641,0,1,0,0-1.282h-.641v-.641a.641.641,0,1,0-1.282,0v.641h-.641a.641.641,0,0,0,0,1.282Z" transform="translate(-278.426 -131.602)" fill="#f15c2c"/>
        <path id="Path_584" data-name="Path 584" d="M399.707,398.9h-.641v-.641a.641.641,0,1,0-1.282,0v.641h-.641a.641.641,0,1,0,0,1.282h.641v.641a.641.641,0,1,0,1.282,0v-.641h.641a.641.641,0,1,0,0-1.282Z" transform="translate(-371.077 -372.122)" fill="#f15c2c"/>
        <path id="Path_585" data-name="Path 585" d="M361.893,3.848a1.924,1.924,0,1,0-1.924-1.924,1.924,1.924,0,0,0,1.924,1.924Zm0-2.565a.641.641,0,1,1-.641.641.641.641,0,0,1,.641-.641Z" transform="translate(-336.888 -0.001)" fill="#f15c2c"/>
        <path id="Path_586" data-name="Path 586" d="M424.425,173.619a1.924,1.924,0,1,0,1.924,1.924,1.924,1.924,0,0,0-1.924-1.924Zm0,2.565a.641.641,0,1,1,.641-.641.641.641,0,0,1-.641.641Z" transform="translate(-395.41 -162.486)" fill="#f15c2c"/>
        <path id="Path_587" data-name="Path 587" d="M170.427,39.467a1.924,1.924,0,1,0-1.924-1.924,1.924,1.924,0,0,0,1.924,1.924Zm0-2.565a.641.641,0,1,1-.641.641.641.641,0,0,1,.641-.641Z" transform="translate(-157.698 -33.336)" fill="#f15c2c"/>
        <path id="Path_588" data-name="Path 588" d="M430.472,284.7a.641.641,0,1,0-.641.641A.641.641,0,0,0,430.472,284.7Z" transform="translate(-401.67 -265.844)" fill="#f15c2c"/>
        <path id="Path_589" data-name="Path 589" d="M325.83,76.342a.641.641,0,1,0-.641-.641A.641.641,0,0,0,325.83,76.342Z" transform="translate(-304.338 -70.247)" fill="#f15c2c"/>
        <path id="Path_590" data-name="Path 590" d="M459.829,359.057a.641.641,0,1,0,.641.641.641.641,0,0,0-.641-.641Z" transform="translate(-429.745 -336.034)" fill="#f15c2c"/>
        <path id="Path_591" data-name="Path 591" d="M129.833,11.283a.641.641,0,1,0-.641-.641.641.641,0,0,0,.641.641Z" transform="translate(-120.908 -9.36)" fill="#f15c2c"/>
      </g>
    </g>
  </g>
</svg>
