<svg xmlns="http://www.w3.org/2000/svg" xmlns:xlink="http://www.w3.org/1999/xlink" width="80" height="80" viewBox="0 0 80 80">
  <defs>
    <clipPath id="clip-path">
      <rect id="Rectangle_142" data-name="Rectangle 142" width="80" height="80" transform="translate(256 2432)" stroke="#000" stroke-width="1.6"/>
    </clipPath>
  </defs>
  <g id="Track_Order" data-name="Track Order" transform="translate(-256 -2432)" clip-path="url(#clip-path)">
    <g id="direction" transform="translate(258.774 2440.009)">
      <path id="Path_1456" data-name="Path 1456" d="M41.346,67.079a1.454,1.454,0,1,0-1.454,1.454A1.455,1.455,0,0,0,41.346,67.079Zm0,0" transform="translate(-2.666 -4.552)" stroke="#000" stroke-width="1.6"/>
      <path id="Path_1457" data-name="Path 1457" d="M13.377,65.132a1.468,1.468,0,0,0,1.164.583H31.409a1.454,1.454,0,1,0,0-2.908H17.384c3.572-5.056,11.7-17.124,11.7-23.266A14.541,14.541,0,1,0,0,39.541c0,6.62,9.743,20.74,13.377,25.591Zm1.164-37.224A11.646,11.646,0,0,1,26.174,39.541c0,5-7.555,16.57-11.633,22.257C10.463,56.111,2.908,44.542,2.908,39.541A11.646,11.646,0,0,1,14.541,27.908Zm0,0" transform="translate(0 -1.734)" fill="#1e73c9" stroke="#1e73c9" stroke-width="1.6"/>
      <path id="Path_1458" data-name="Path 1458" d="M22.354,40.083a7.271,7.271,0,1,0-7.271,7.271A7.279,7.279,0,0,0,22.354,40.083Zm-11.633,0a4.362,4.362,0,1,1,4.362,4.362A4.367,4.367,0,0,1,10.721,40.083Zm0,0" transform="translate(-0.542 -2.276)" fill="#1e73c9" stroke="#1e73c9" stroke-width="1.6"/>
      <path id="Path_1459" data-name="Path 1459" d="M64.03,0A13.1,13.1,0,0,0,50.943,13.087c0,5.351,6.784,14.66,10.068,18.9H47.162a8.725,8.725,0,1,0,0,17.45h9.6a5.817,5.817,0,0,1,0,11.633H45.708a1.454,1.454,0,1,0,0,2.908H56.76a8.725,8.725,0,0,0,0-17.45h-9.6a5.817,5.817,0,0,1,0-11.633H64.03a1.471,1.471,0,0,0,1.117-.523c3.551-4.255,11.97-15.43,11.97-21.289A13.1,13.1,0,0,0,64.03,0Zm0,31.138c-3.619-4.561-10.179-13.723-10.179-18.051a10.179,10.179,0,1,1,20.358,0C74.209,17.415,67.65,26.577,64.03,31.138Zm0,0" transform="translate(-2.666)" stroke="#000" stroke-width="1.6"/>
      <path id="Path_1460" data-name="Path 1460" d="M65.5,7.813a5.817,5.817,0,1,0,5.817,5.817A5.823,5.823,0,0,0,65.5,7.813Zm0,8.725a2.908,2.908,0,1,1,2.908-2.908A2.912,2.912,0,0,1,65.5,16.537Zm0,0" transform="translate(-4.14 -0.542)" stroke="#000" stroke-width="1.6"/>
    </g>
  </g>
</svg>
