<svg xmlns="http://www.w3.org/2000/svg" width="36.5" height="45.445" viewBox="0 0 36.5 45.445">
  <path id="User" d="M158.973,51.794a10.108,10.108,0,0,1-.082,1.267c.024-.169.048-.342.067-.511a9.887,9.887,0,0,1-.66,2.432c.063-.154.13-.308.193-.462a9.618,9.618,0,0,1-1.243,2.129l.3-.39a9.793,9.793,0,0,1-1.729,1.729l.39-.3a9.808,9.808,0,0,1-2.129,1.243c.154-.063.308-.13.462-.193a9.888,9.888,0,0,1-2.432.66c.169-.024.342-.048.511-.067a9.7,9.7,0,0,1-2.534,0c.169.024.342.048.511.067a9.887,9.887,0,0,1-2.432-.66c.154.063.308.13.462.193a9.617,9.617,0,0,1-2.129-1.243l.39.3a9.792,9.792,0,0,1-1.729-1.729l.3.39a9.808,9.808,0,0,1-1.243-2.129c.063.154.13.308.193.462a9.888,9.888,0,0,1-.66-2.432c.024.169.048.342.067.511a9.7,9.7,0,0,1,0-2.534c-.024.169-.048.342-.067.511a9.888,9.888,0,0,1,.66-2.432c-.063.154-.13.308-.193.462a9.617,9.617,0,0,1,1.243-2.129l-.3.39a9.792,9.792,0,0,1,1.729-1.729l-.39.3a9.809,9.809,0,0,1,2.129-1.243c-.154.063-.308.13-.462.193a9.887,9.887,0,0,1,2.432-.66c-.169.024-.342.048-.511.067a9.7,9.7,0,0,1,2.534,0c-.169-.024-.342-.048-.511-.067a9.888,9.888,0,0,1,2.432.66c-.154-.063-.308-.13-.462-.193a9.617,9.617,0,0,1,2.129,1.243l-.39-.3a9.793,9.793,0,0,1,1.729,1.729l-.3-.39a9.809,9.809,0,0,1,1.243,2.129c-.063-.154-.13-.308-.193-.462a9.887,9.887,0,0,1,.66,2.432c-.024-.169-.048-.342-.067-.511a11.111,11.111,0,0,1,.082,1.267,1.927,1.927,0,1,0,3.853,0,11.359,11.359,0,0,0-2.062-6.546,13.22,13.22,0,0,0-1.19-1.45,12.276,12.276,0,0,0-1.421-1.223,11.334,11.334,0,0,0-3.006-1.6,11.494,11.494,0,0,0-12.538,3.41,12.664,12.664,0,0,0-1.117,1.551,11.85,11.85,0,0,0-.819,1.71,11.436,11.436,0,0,0,5.775,14.513,10.718,10.718,0,0,0,3.767,1.045,11.413,11.413,0,0,0,12.422-9.421,12.918,12.918,0,0,0,.178-1.975,1.922,1.922,0,0,0-3.844-.014Zm6.392,30.119H140.65c-1.093,0-2.187.01-3.28,0a2.888,2.888,0,0,1-.356-.024c.169.024.342.048.511.067a2.423,2.423,0,0,1-.554-.154c.154.063.308.13.462.193a2.442,2.442,0,0,1-.539-.318l.39.3a2.782,2.782,0,0,1-.395-.395l.3.39a2.645,2.645,0,0,1-.318-.539c.063.154.13.308.193.462a2.782,2.782,0,0,1-.154-.554c.024.169.048.342.067.511a13.82,13.82,0,0,1-.024-1.787V78.006a11.7,11.7,0,0,1,.1-1.537c-.024.169-.048.342-.067.511a11.267,11.267,0,0,1,.785-2.876c-.063.154-.13.308-.193.462a11.326,11.326,0,0,1,1.44-2.456l-.3.39a11.433,11.433,0,0,1,2-2l-.39.3a11.327,11.327,0,0,1,2.456-1.44c-.154.063-.308.13-.462.193a11.412,11.412,0,0,1,2.876-.785c-.169.024-.342.048-.511.067a16.688,16.688,0,0,1,2.139-.1h8.814a18.724,18.724,0,0,1,2.379.1c-.169-.024-.342-.048-.511-.067a11.267,11.267,0,0,1,2.876.785c-.154-.063-.308-.13-.462-.193a11.326,11.326,0,0,1,2.456,1.44l-.39-.3a11.433,11.433,0,0,1,2,2l-.3-.39a11.327,11.327,0,0,1,1.44,2.456c-.063-.154-.13-.308-.193-.462a11.412,11.412,0,0,1,.785,2.876c-.024-.169-.048-.342-.067-.511a17.367,17.367,0,0,1,.1,2.182v2.384a6.618,6.618,0,0,1-.024.819c.024-.169.048-.342.067-.511a2.423,2.423,0,0,1-.154.554c.063-.154.13-.308.193-.462a2.443,2.443,0,0,1-.318.539l.3-.39a2.782,2.782,0,0,1-.395.395l.39-.3a2.646,2.646,0,0,1-.539.318c.154-.063.308-.13.462-.193a2.783,2.783,0,0,1-.554.154c.169-.024.342-.048.511-.067-.106.014-.217.019-.328.024a2.01,2.01,0,0,0-1.363.564,1.928,1.928,0,0,0,1.363,3.29,4.317,4.317,0,0,0,4.07-3.049,7.572,7.572,0,0,0,.169-2.211,28.914,28.914,0,0,0-.236-5,13.043,13.043,0,0,0-9.638-10.221,17.116,17.116,0,0,0-4.142-.39h-8.545a16.339,16.339,0,0,0-4.243.438,13.048,13.048,0,0,0-9.479,10.337,31.418,31.418,0,0,0-.207,4.947,6.4,6.4,0,0,0,.231,2.283,4.509,4.509,0,0,0,1.758,2.225,4.252,4.252,0,0,0,2.245.645c.376,0,.751,0,1.127,0h26.9a1.929,1.929,0,0,0,0-3.858Z" transform="translate(-133.107 -40.327)"/>
</svg>
