<svg xmlns="http://www.w3.org/2000/svg" xmlns:xlink="http://www.w3.org/1999/xlink" width="80" height="80" viewBox="0 0 80 80">
  <defs>
    <clipPath id="clip-path">
      <rect id="Rectangle_140" data-name="Rectangle 140" width="80" height="80" transform="translate(256 2432)" fill="#737373"/>
    </clipPath>
  </defs>
  <g id="Wallet_integration" data-name="Wallet integration" transform="translate(-256 -2432)" clip-path="url(#clip-path)">
    <path id="Polygon_1" data-name="Polygon 1" d="M13.5,0,27,14H0Z" transform="translate(270 2437)" fill="#1d73c9"/>
    <path id="Polygon_2" data-name="Polygon 2" d="M15,0,30,14H0Z" transform="translate(290 2437)" fill="#1d73c9"/>
    <g id="wallet" transform="translate(246.769 2422.339)">
      <path id="Path_1440" data-name="Path 1440" d="M81.292,27.692,62.338,11.569a6.154,6.154,0,0,0-7.692-.246l-8.215,6.154-5.169-5.169a6.154,6.154,0,0,0-8.677,0L17.2,27.846a9.231,9.231,0,0,0-7.969,9.077V80a9.231,9.231,0,0,0,9.231,9.231H80A9.231,9.231,0,0,0,89.23,80V36.923a9.231,9.231,0,0,0-7.938-9.231Zm1.785,36.923H76.923a6.154,6.154,0,1,1,0-12.308h6.154ZM58.461,16.246,71.692,27.692H56.646L50.83,21.877Zm-21.538.4L47.969,27.692H25.877ZM80,83.076H18.461A3.077,3.077,0,0,1,15.385,80V36.923a3.077,3.077,0,0,1,3.077-3.077H80a3.077,3.077,0,0,1,3.077,3.077v9.231H76.923a12.308,12.308,0,1,0,0,24.615h6.154V80A3.077,3.077,0,0,1,80,83.076Z"/>
      <path id="Path_1441" data-name="Path 1441" d="M74.738,56.277a3.231,3.231,0,0,0-.892,2.185,3.077,3.077,0,1,0,.892-2.185Z"/>
    </g>
  </g>
</svg>
